<svg id="Layer_1" data-name="Layer 1" xmlns="http://www.w3.org/2000/svg" xmlns:xlink="http://www.w3.org/1999/xlink" viewBox="0 0 1024 1024"><defs><style>.cls-1,.cls-5{fill:#6c63ff;}.cls-1,.cls-4,.cls-7{opacity:0.1;}.cls-1,.cls-4{isolation:isolate;}.cls-2{fill:url(#linear-gradient);}.cls-3{fill:#fff;}.cls-6{fill:#3f3d56;}.cls-8{fill:#a0616a;}.cls-9{fill:url(#linear-gradient-2);}.cls-10{fill:#996044;}.cls-11{fill:#512e4e;}.cls-12{fill:#535461;}.cls-13{fill:#9d9cb5;}.cls-14{fill:none;stroke:#535461;stroke-miterlimit:10;stroke-width:2px;}</style><linearGradient id="linear-gradient" x1="439.56" y1="151.56" x2="439.56" y2="619.31" gradientTransform="matrix(1, 0, 0, -1, -15.95, 1006.16)" gradientUnits="userSpaceOnUse"><stop offset="0" stop-color="gray" stop-opacity="0.25"/><stop offset="0.54" stop-color="gray" stop-opacity="0.12"/><stop offset="1" stop-color="gray" stop-opacity="0.1"/></linearGradient><linearGradient id="linear-gradient-2" x1="760.92" y1="131.04" x2="760.92" y2="629.24" xlink:href="#linear-gradient"/></defs><title>icons</title><path class="cls-1" d="M108.55,451.9h82.17v112H114.56c-.2,1.15-.39,2.3-.61,3.46h76.77v90.31a1.22,1.22,0,0,1-.39-.14q-3.22-1.29-6.47-2.73c-.46-.21-.92-.43-1.39-.63q-3.24-1.53-6.47-3.24-1.14-.6-2.25-1.23a134.78,134.78,0,0,1-32.3-25.15c-.29-.27-.55-.56-.81-.81-1.32-1.43-2.6-2.87-3.85-4.34-.47-.54-.92-1.09-1.38-1.62-1.48-1.8-2.9-3.66-4.28-5.53-.21-.28-.4-.56-.61-.81a119.9,119.9,0,0,1-13.92-25.18c-.12-.27-.22-.56-.33-.81-1.11-2.83-2.13-5.71-3-8.64-.37-1.22-.74-2.43-1-3.7-.12-.36-.21-.74-.3-1.1-4.55-17.94-5.08-36.57-5.08-55.12v-6.48q.09-11.37.27-22.7.06-2.91.12-5.85.17-7.44.48-14.92c0-1.37.12-2.76.19-4.12,0-.8.07-1.59.12-2.39Q108.26,456.15,108.55,451.9Z"/><path class="cls-1" d="M190.72,327.2H145.64a344.56,344.56,0,0,1,24-33q10.06-12.34,21.11-24Z"/><path class="cls-1" d="M190.72,330.65V448.44H108.81c0-.34,0-.69.08-1,.07-.93.14-1.86.23-2.79s.18-2.17.29-3.23.21-2.37.34-3.54.23-2.37.36-3.54.26-2.35.41-3.52.27-2.34.43-3.51c.13-1,.25-1.93.38-2.91.19-1.36.38-2.73.59-4.09a4.21,4.21,0,0,1,.09-.62,283.19,283.19,0,0,1,6-29.57,218.25,218.25,0,0,1,10.16-30,224.28,224.28,0,0,1,15.29-29.48Z"/><path class="cls-1" d="M210.34,451.9v112H385.85v-112Zm0,115.47v96.19c1,.2,2,.41,3,.58,1.34.25,2.68.49,4,.69l.81.11c.53.09,1.07.17,1.62.23,1.35.2,2.7.34,4.05.47.63.07,1.28.11,1.92.17l1.56.11h0c.86.07,1.7.12,2.54.15.52,0,1,0,1.56.06h5.73a20.75,20.75,0,0,0,2.09-.07h0a14.15,14.15,0,0,0,1.45,0h.41a9.55,9.55,0,0,0,1.2,0h.27l2.72-.21c.92-.08,1.78-.18,2.7-.28l1.84-.23a162,162,0,0,0,22.22-4.72c16.38-4.57,32.39-11,48.76-15.63,21.15-6,44.53-9,65-1.66V567.37ZM385.85,327.2V178.09a224.93,224.93,0,0,0-57,6.68c-44.44,11.16-84.35,35.38-118.49,66.31v76.11h8.84v3.46h-8.84V448.44H385.85V330.65H255.31v-3.47Zm225.48-50.37c-11-.39-21.93-3.87-31.82-9.25-18.9-10.27-34-26.16-50.88-39.55-35.06-27.91-78.54-44.76-123.15-48.94V327.2H656l.63-.66Zm22.82-4.05,24.2,26.56V265.79c-8.14,1-15.24,3.42-24.2,7Zm24.2,414.67V567.37H606.74c-.13-.51-.27-1-.43-1.55.15.52.29,1,.43,1.55H405.48V654.2c1.91,1.42,3.8,2.92,5.67,4.42h0c2,1.65,4,3.32,6,5l2,1.66c1,.81,1.95,1.62,2.92,2.39Q425,670,428,672.35c1,.77,2,1.54,3,2.29a407.52,407.52,0,0,0,49.91,32.63q5.86,3.27,11.82,6.33c2.64,1.36,5.29,2.69,8,4q6,2.94,12.15,5.67h0A445.91,445.91,0,0,0,631,757.69q13.59,2,27.29,3.16V687.43h.81ZM405.48,330.65V448.44H658.35V330.65Zm0,121.24v112H658.35v-112ZM678,265.63v37.49l30.88-33.9Q693.52,266.68,678,265.63Zm0,186.27v112H923.92v-112ZM923.05,696.33l.87-129H678V762.15a443.31,443.31,0,0,0,47.53-.57h.27q11.34-.74,22.57-2.07h.17a415,415,0,0,0,116-31M971.37,470.3q-1.41-3.24-2.88-6.48c-1.83-4.05-3.76-8-5.75-11.91H943.55v112h48.51c0-31.73-8.07-64.11-20.69-93.61Zm-27.82,97.07V678.3c13.66-13.1,25.22-28.08,33.52-45.22,10-20.63,14.58-43,15-65.72Zm0-148.11v29.15h17.39A315.18,315.18,0,0,0,943.55,419.26ZM776.76,287.61c-1.28-.49-2.57-1-3.85-1.46a351.77,351.77,0,0,0-41.54-12.48L684.1,325.54h0l-.92,1,.6.66H852A359.29,359.29,0,0,0,776.76,287.61Zm80.2,43H681.43L678,333.8V448.44H923.92V392.89A350.52,350.52,0,0,0,857,330.65Z"/><path class="cls-1" d="M190.72,390.07v58.37H108.81c0-.34,0-.69.08-1,.07-.93.14-1.86.23-2.79s.18-2.17.29-3.23.21-2.37.34-3.54.23-2.37.36-3.54.26-2.35.41-3.52.27-2.34.43-3.51c.13-1,.25-1.93.38-2.91.19-1.36.38-2.73.59-4.09a4.21,4.21,0,0,1,.09-.62,283.19,283.19,0,0,1,6-29.57Z"/><path class="cls-1" d="M108.55,451.9h82.17v112H114.56c-.2,1.15-.39,2.3-.61,3.46h76.77v90.31a1.22,1.22,0,0,1-.39-.14q-3.22-1.29-6.47-2.73c-.46-.21-.92-.43-1.39-.63q-3.24-1.53-6.47-3.24-1.14-.6-2.25-1.23a134.78,134.78,0,0,1-32.3-25.15c-.29-.27-.55-.56-.81-.81-1.32-1.43-2.6-2.87-3.85-4.34-.47-.54-.92-1.09-1.38-1.62-1.48-1.8-2.9-3.66-4.28-5.53-.21-.28-.4-.56-.61-.81a119.9,119.9,0,0,1-13.92-25.18c-.12-.27-.22-.56-.33-.81-1.11-2.83-2.13-5.71-3-8.64-.37-1.22-.74-2.43-1-3.7-.12-.36-.21-.74-.3-1.1-4.55-17.94-5.08-36.57-5.08-55.12v-6.48q.09-11.37.27-22.7.06-2.91.12-5.85.17-7.44.48-14.92c0-1.37.12-2.76.19-4.12,0-.8.07-1.59.12-2.39Q108.26,456.15,108.55,451.9Z"/><polygon class="cls-1" points="272.12 347.52 272.12 448.44 210.33 448.44 210.33 347.52 219.14 347.52 219.14 313.35 255.3 313.35 255.3 347.52 272.12 347.52"/><rect class="cls-1" x="210.33" y="451.89" width="61.78" height="112"/><path class="cls-1" d="M210.34,567.37h61.78v93.11a158.92,158.92,0,0,1-22.23,4.72c-.61.09-1.22.17-1.83.23-.91.11-1.81.2-2.71.28l-2.71.22h-.28l-1.19.07h-.42c-.48,0-1,0-1.45.06h0c-.69,0-1.38.05-2.08.07h-5.73a11.79,11.79,0,0,1-1.57-.07c-.83,0-1.67-.08-2.53-.14h0l-1.56-.12-1.93-.17c-1.37-.12-2.71-.28-4.05-.47l-1.62-.22-.81-.12c-1.35-.2-2.7-.43-4-.68-1-.18-2-.39-3-.6Z"/><rect class="cls-1" x="607.4" y="335.6" width="50.94" height="112.83"/><polygon class="cls-1" points="658.35 451.89 658.35 563.9 405.48 563.9 405.48 515.59 540.17 515.59 540.17 544.09 607.4 544.09 607.4 451.89 658.35 451.89"/><path class="cls-1" d="M659.15,687.47a4.52,4.52,0,0,1-.81-.05V760.9q-13.68-1.12-27.28-3.15A446.34,446.34,0,0,1,512.8,723.34q-16.3-7.35-31.94-16A409.42,409.42,0,0,1,431,674.68q-6-4.57-11.77-9.34c-2.68-2.22-5.34-4.48-8-6.68-1.86-1.51-3.75-3-5.67-4.44V567.37H606.74c-.15-.52-.28-1-.43-1.55.16.52.3,1,.43,1.55h51.61v120C658.62,687.42,658.89,687.45,659.15,687.47Z"/><path class="cls-1" d="M791.22,327.2H758V316.88H772.9V286.15c1.29.48,2.57,1,3.85,1.46v29.27h14.46Z"/><path class="cls-1" d="M871.21,448.44H678V335.61h8.57V419h39.13V369.62H758v-39h33.2v39h32.33V419h47.66Z"/><path class="cls-1" d="M678,451.9v112H871.22v-112ZM923.64,695.74l.28-88.66h-52.7V567.4H678V762.15a443.31,443.31,0,0,0,47.53-.57h.27q11.34-.74,22.57-2.07h.17a415,415,0,0,0,116-31"/><path class="cls-1" d="M947,567.37H992c-.39,22.74-5,45.08-15,65.71-8.3,17.15-19.86,32.13-33.52,45.22V607.05H947Z"/><path class="cls-1" d="M992.06,563.91H947V470.3h24.42C984,499.8,992,532.18,992.06,563.91Z"/><rect class="cls-1" x="631.06" y="366.97" width="27.29" height="35.37"/><rect class="cls-1" x="631.06" y="440.29" width="27.29" height="8.15"/><rect class="cls-1" x="631.06" y="451.89" width="27.29" height="23.76"/><rect class="cls-1" x="631.06" y="513.62" width="27.29" height="35.37"/><rect class="cls-1" x="631.06" y="586.94" width="27.29" height="35.37"/><path class="cls-1" d="M658.35,687.41a3.69,3.69,0,0,1,.81.06,4.46,4.46,0,0,1-.81-.05v8.22H631.06V660.27h27.29Z"/><path class="cls-1" d="M658.35,733.58V760.9q-13.7-1.12-27.29-3.15V733.58Z"/><rect class="cls-1" x="405.48" y="561.31" width="116.97" height="2.6"/><rect class="cls-1" x="405.48" y="567.36" width="116.97" height="9.96"/><rect class="cls-1" x="405.48" y="609.97" width="116.97" height="16.02"/><path class="cls-1" d="M522.46,658.63v16H431q-6-4.54-11.77-9.34c-2.69-2.21-5.34-4.48-8-6.67Z"/><path class="cls-1" d="M522.46,707.28v16.06H512.8q-16.3-7.35-31.94-16Z"/><rect class="cls-1" x="725.51" y="462.75" width="23.03" height="23.03"/><rect class="cls-1" x="226.92" y="355.46" width="23.03" height="23.03"/><rect class="cls-1" x="226.92" y="408.95" width="23.03" height="23.03"/><rect class="cls-1" x="226.92" y="462.44" width="23.03" height="23.03"/><rect class="cls-1" x="226.92" y="515.92" width="23.03" height="23.03"/><rect class="cls-1" x="226.92" y="569.4" width="23.03" height="23.03"/><rect class="cls-1" x="226.92" y="622.89" width="23.03" height="23.03"/><rect class="cls-1" x="813.41" y="462.75" width="23.03" height="23.03"/><rect class="cls-1" x="725.51" y="519.55" width="23.03" height="23.03"/><rect class="cls-1" x="813.41" y="519.55" width="23.03" height="23.03"/><rect class="cls-1" x="725.51" y="576.34" width="23.03" height="23.03"/><rect class="cls-1" x="813.41" y="576.34" width="23.03" height="23.03"/><rect class="cls-1" x="725.51" y="633.14" width="23.03" height="23.03"/><rect class="cls-1" x="813.41" y="633.14" width="23.03" height="23.03"/><rect class="cls-1" x="725.51" y="689.94" width="23.03" height="23.03"/><rect class="cls-1" x="813.41" y="689.94" width="23.03" height="23.03"/><polygon class="cls-1" points="725.51 761.58 725.51 746.73 748.53 746.73 748.53 759.47 725.51 761.58"/><path class="cls-1" d="M111.92,419.64v13.17h78.8V419.64ZM119.76,432h-6.47V420.47h6.47Zm7.85,0h-6.48V420.47h6.48Zm7.83,0H129V420.47h6.48Zm7.84,0h-6.47V420.47h6.47Zm7.84,0h-6.48V420.47h6.48Zm7.85,0h-6.48V420.47H159Zm7.84,0h-6.47V420.47h6.47Zm7.84,0h-6.48V420.47h6.48Zm7.84,0H176V420.47h6.48Zm7.84,0h-6.47V420.47h6.47Z"/><path class="cls-1" d="M111.92,458v13.18h78.8V458Zm7.84,12.35h-6.47V458.82h6.47Zm7.85,0h-6.48V458.82h6.48Zm7.83,0H129V458.82h6.48Zm7.84,0h-6.47V458.82h6.47Zm7.84,0h-6.48V458.82h6.48Zm7.85,0h-6.48V458.82H159Zm7.84,0h-6.47V458.82h6.47Zm7.84,0h-6.48V458.82h6.48Zm7.84,0H176V458.82h6.48Zm7.84,0h-6.47V458.82h6.47Z"/><path class="cls-1" d="M111.92,496.34V509.5h78.8V496.34Zm7.84,12.33h-6.47V497.16h6.47Zm7.85,0h-6.48V497.16h6.48Zm7.83,0H129V497.16h6.48Zm7.84,0h-6.47V497.16h6.47Zm7.84,0h-6.48V497.16h6.48Zm7.85,0h-6.48V497.16H159Zm7.84,0h-6.47V497.16h6.47Zm7.84,0h-6.48V497.16h6.48Zm7.84,0H176V497.16h6.48Zm7.84,0h-6.47V497.16h6.47Z"/><path class="cls-1" d="M111.92,534.68v13.17h78.8V534.68ZM119.76,547h-6.47V535.49h6.47Zm7.85,0h-6.48V535.49h6.48Zm7.83,0H129V535.49h6.48Zm7.84,0h-6.47V535.49h6.47Zm7.84,0h-6.48V535.49h6.48Zm7.85,0h-6.48V535.49H159Zm7.84,0h-6.47V535.49h6.47Zm7.84,0h-6.48V535.49h6.48Zm7.84,0H176V535.49h6.48Zm7.84,0h-6.47V535.49h6.47Z"/><path class="cls-1" d="M112.3,573c.31,1.25.67,2.48,1,3.7v-2.86h6.48v11.5h-3.47a8.53,8.53,0,0,0,.31.81h74.09V573Zm15.38,12.34H121.2v-11.5h6.48Zm7.83,0H129v-11.5h6.48Zm7.85,0h-6.48v-11.5h6.48Zm7.83,0h-6.47v-11.5h6.47Zm7.85,0h-6.48v-11.5H159Zm7.85,0h-6.48v-11.5h6.48Zm7.83,0h-6.47v-11.5h6.47Zm7.84,0h-6.48v-11.5h6.48Zm7.85,0h-6.48v-11.5h6.48Z"/><path class="cls-1" d="M130.55,611.36c.21.26.4.55.61.81h4.28v5.53l1.38,1.62v-7.18h6.48v11.61h-2.66c.26.27.51.55.81.81H190.7v-13.2Zm20.61,12.39h-6.47V612.19h6.47Zm7.85,0h-6.48V612.19H159Zm7.84,0h-6.47V612.19h6.47Zm7.84,0h-6.48V612.19h6.48Zm7.84,0h-6.48V612.19h6.48Zm7.85,0H183.9V612.19h6.48Z"/><path class="cls-1" d="M173.78,649.71c.74.42,1.49.81,2.25,1.22v-.41h6.48v3.66c.46.2.91.42,1.37.63v-4.29h6.48v7a2.43,2.43,0,0,0,.38.13v-8Z"/><path class="cls-1" d="M708.22,448.44Zm-49.88,239Zm-52-121.59c.15.52.29,1,.43,1.55h0C606.61,566.86,606.47,566.34,606.31,565.82ZM708.22,448.44Zm-489-121.24v3.45h36.16v-3.47ZM658.35,687.41Zm-52-121.59c.15.52.29,1,.43,1.55h0C606.61,566.86,606.47,566.34,606.31,565.82ZM708.22,448.44Zm-49.88,239Zm-52-121.59c.15.52.29,1,.43,1.55h0C606.61,566.86,606.47,566.34,606.31,565.82Z"/><ellipse class="cls-1" cx="402.91" cy="851.37" rx="78.89" ry="12.67"/><path class="cls-2" d="M493.74,516.31a.45.45,0,0,0-.12-.21c-1.21-1.19-16.6-22.94-16.6-22.94s-.8-2.43-2.12-5.59a5.51,5.51,0,0,0,.93-1.82,5.08,5.08,0,0,0,.16-.85.84.84,0,0,1,.09-.25,6.21,6.21,0,0,0-.08-3.34,4.79,4.79,0,0,1-.34.81,13.35,13.35,0,0,0-1.21-2.7c-2-3.52-4.95-6.48-7.1-9.91a26.78,26.78,0,0,1-3.65-17.78v1a28,28,0,0,1,.48-3.65,25.14,25.14,0,0,1,1.36-4c1.92-4.41,5-8.25,6.93-12.68a24.47,24.47,0,0,0,1.45-4.64,26.26,26.26,0,0,0,.72-8.14,12.65,12.65,0,0,1-.21,1.94A26.3,26.3,0,0,0,467,404c-6.61-6.65-16.11-9.23-25.19-10.59a23.14,23.14,0,0,1-10.61-4.05c-3.49-2.26-8-2.8-12.08-2.31a20,20,0,0,0-12.3,6.08c-4.32,4.75-6.19,11.47-11.22,15.47-3,2.43-6.93,3.56-10.48,5.21s-6.91,4.05-8.06,7.6v.13l0,.13c-1.19,4.19,1.1,8.46,2.29,12.64,1.24,4.34,1.32,8.91,1.38,13.39.09,5.47.17,10.95.08,16.43,0,2.16-.11,4.34-.27,6.48a33.94,33.94,0,0,0-5.57,2.24c-1.81,1.18-8.59,8.51-8.59,8.51L353.06,532l.17.2-.17.69.67-.15c1.88,2,7.49,7.78,13.54,11.38l.57,9.94s.68,10,9.85,14.1c.21,3.46.87,17.5-2.17,23.06a25.87,25.87,0,0,0-2.86,13.18s1.06,8.44-.15,12.87a21,21,0,0,0-.15,9h0V629c0,9,.1,37.76,0,41-.16,3.85,0,60.73,0,60.73s-.75,28.43-3.17,36.13-1.8,33.19-1.8,33.19-1.52,30.37,3.83,36.37c0,.26,0,.54-.05.81v.38c-.07,2.3.38,4.76,2.36,5.51,4.05,1.56,9.4,6.22,10.41,7.55s6.9,4.67,14.58,3.78a111.25,111.25,0,0,1,14.48-.67h0s3-.55,2.05-4.31h0c-.63-2.35-3-6-4.68-8.33.31.08.61.14.89.2l.29.06h1.22c2-.2,9.61,3.33,11,5.66s6.12,4.11,9.72,4.55c2.14.26,7.53-.17,12.05-.76a43.19,43.19,0,0,0,6.76-1.23c1.07-.4,1.29-1.7,1-3.16h0a8.15,8.15,0,0,0-2.8-4.72c-1.31-.94-3-3.39-4.32-5.4l-.34-.54c2.26-2.15,6.34-9.2,7.58-10.65,1.5-1.78-2.43-66.62-2.43-66.62V726l6-30.77L461.18,679l3.62-24.59s6.33-28.71,4.38-31.52h0c0-.06-1.62-29.62-3.32-36.72-.74-3.17-.55-10.29-.11-17.22a3.43,3.43,0,0,0,.81-3.55,8.42,8.42,0,0,0-.47-1.21v-.37a55.82,55.82,0,0,1,10.9-3.71c6-1.18,4.53-4.29,4.53-4.29s1.36-2.66,2.26-4.29.15-16,0-17.17c-.06-.48-.43-3.12-.86-6.12,1.93-1.37,4.45-3.08,7.2-4.7C495.34,520.43,494.17,517.16,493.74,516.31ZM415,721.59s-4.53,11.55-2.72,14.5S412,750,412,750l-1.51,16.28s-4.22,30.2-2.71,37.3c1.18,5.57,1.62,22.21,1.75,29.15h0a1.59,1.59,0,0,0-.29.15l-.21.1c.7-2.73.41-8.25-3.05-19.36l-.29-45.88s-.54-53,3.65-58.93,5.67-16,5.67-16-.91,14.52-1.5,18.36S415,721.59,415,721.59Zm-8.43,114-.12.28-.23-.29A2,2,0,0,0,406.61,835.64Z"/><path class="cls-3" d="M452.77,853.83c-2.34.9-15,2.43-18.58,2s-8.24-2.23-9.58-4.58-8.82-5.89-10.83-5.67a7.18,7.18,0,0,1-2.43-.34,31,31,0,0,1-4.05-1.55,7.61,7.61,0,0,1,.09-3.08q.08-.3.18-.6a5.32,5.32,0,0,1,2.72-3l.29-.14a8.25,8.25,0,0,1,1.75-.54c6.37-1.22,32.62,1.23,32.62,1.23s.74,1.32,1.75,3c1.27,2,3,4.49,4.28,5.42a8.34,8.34,0,0,1,2.76,4.76C454.05,852.12,453.82,853.43,452.77,853.83Z"/><path class="cls-4" d="M452.77,853.83c-2.34.9-15,2.43-18.57,2s-8.24-2.24-9.59-4.58-8.81-5.89-10.82-5.67-6.48-1.89-6.48-1.89a6.74,6.74,0,0,1,1.33-5.45l4.05,2.87s10.83,3.36,12.84,6.48,5.67,4.86,11,5.18c4,.25,13-1.28,17.28-2C454.05,852.12,453.83,853.43,452.77,853.83Z"/><path class="cls-3" d="M414,858a106.74,106.74,0,0,0-14.3.67c-7.6.89-13.41-2.43-14.42-3.8A33.7,33.7,0,0,0,375,847.22c-2-.76-2.43-3.24-2.34-5.55v-.39a23.57,23.57,0,0,1,.65-4.34l31.51-.68,2.72,3.7.43.57,1.66,2.26s.75,1,1.74,2.43c1.66,2.43,4,6,4.62,8.39h0C417,857.41,414,858,414,858Z"/><path class="cls-4" d="M414,858a106.74,106.74,0,0,0-14.3.67c-7.6.89-13.41-2.43-14.41-3.8s-6.26-6-10.29-7.59c-2-.77-2.43-3.24-2.34-5.56,2.25.53,7,1.87,8.84,4.21,2.43,3.13,6.77,8.38,12.95,8.71,5,.27,17.13-.62,21.59-1C417,857.41,414,858,414,858Z"/><path class="cls-4" d="M410.26,837c-.37,2.71-1.49,3.44-2.3,3.6a1.52,1.52,0,0,1-.6,0l-.32,0s-28.29,6.25-34,1.19a4.07,4.07,0,0,1-.41-.42,22.85,22.85,0,0,1,.65-4.35l31.51-.67,2.72,3.7a5.37,5.37,0,0,1,2.72-3Z"/><path class="cls-4" d="M446.69,840.47c-.63.69-1.15,1.09-1.49.95-1.49-.6-13.7-2.68-17.57-.89s-17,.29-17,.29,0-1.55-.07-4.05a8.22,8.22,0,0,1,1.75-.53c6.36-1.22,32.62,1.23,32.62,1.23S445.69,838.83,446.69,840.47Z"/><path class="cls-5" d="M465.17,657.32l-3.58,24.73-4.16,16.38-6,31V762.2s3.87,65.25,2.38,67-7.15,11.92-8.64,11.33-13.7-2.68-17.58-.89-17,.29-17,.29-.3-25.31-1.79-32.46S411.52,770,411.52,770L413,753.58s2.09-11,.3-14S416,725,416,725s-2.08-6.57-1.48-10.44S416,696.09,416,696.09s-1.48,10.14-5.62,16.09-3.61,59.29-3.61,59.29l.29,46.15c7.46,24.43,0,22,0,22s-28.29,6.25-34,1.19-4.08-37-4.08-37-.6-25.62,1.78-33.36,3.14-36.35,3.14-36.35-.16-57.2,0-61.07c.11-3.23,0-32.23,0-41.29v-2.68l3.42-8.48,40.48-5.07h19.37s29.14,6.85,32.16,9.8a.69.69,0,0,1,.16.18C471.43,628.43,465.17,657.32,465.17,657.32Z"/><path class="cls-4" d="M416,787.21s8.9,21.44,13.1,22.93S416,787.21,416,787.21Z"/><path class="cls-4" d="M419.31,818.78s30.07,1.49,29.77,4.77S419.31,818.78,419.31,818.78Z"/><path class="cls-4" d="M379.08,810.21c1.19,1.12,22.94,3.24,21.15,5.29s-19.36,6.06-19.36,6.06Z"/><path class="cls-4" d="M375.51,773.21c0,.89,4.47,28.59,5.67,29.78s11,2.39,11,2.39Z"/><path class="cls-6" d="M407.94,394.49c-4.27,4.77-6.12,11.53-11.09,15.56-3,2.43-6.84,3.59-10.35,5.24s-7,4.17-8.05,7.91c-1.16,4.21,1.09,8.51,2.27,12.72s1.3,8.91,1.37,13.46c.08,5.52.17,11,.07,16.55-.14,8.59-.86,17.57-5.41,24.85,16.46,5.24,34,6,51.22,6.63a52.63,52.63,0,0,0,10-.25A84.69,84.69,0,0,0,446.4,495a65,65,0,0,1,16.89-2.16,28.29,28.29,0,0,0,7.42-.5c2.4-.64,4.7-2.3,5.35-4.7.58-2.15-.27-4.45-1.37-6.38-2-3.53-4.85-6.48-7-10a27.38,27.38,0,0,1-1.76-24.61c1.92-4.44,5-8.31,6.87-12.76a26.94,26.94,0,0,0-5.42-28.57c-6.54-6.69-15.91-9.28-24.89-10.65A22.62,22.62,0,0,1,432,390.67c-3.44-2.27-7.91-2.82-11.94-2.32A19.43,19.43,0,0,0,407.94,394.49Z"/><g class="cls-7"><path d="M466.18,442a26.88,26.88,0,0,0-2.07,12.37,26.32,26.32,0,0,1,2.07-8.78c1.9-4.45,5-8.32,6.85-12.77a25.85,25.85,0,0,0,1.89-11.76,25,25,0,0,1-1.89,8.18C471.15,433.73,468.08,437.59,466.18,442Z"/><path d="M382.33,448.28c.05,3.18.1,6.36.11,9.53q0-6.56-.11-13.1c-.06-4.52-.14-9.11-1.37-13.47-.8-2.77-2-5.58-2.42-8.37-.72,4,1.32,8,2.42,11.95C382.19,439.14,382.27,443.76,382.33,448.28Z"/><path d="M471,487.72a27.39,27.39,0,0,1-7.4.5,64.59,64.59,0,0,0-16.89,2.12c-2.78.85-5.61,1.57-8.47,2.14a51,51,0,0,1-10,.25c-16.68-.65-33.6-1.36-49.57-6.12a28.12,28.12,0,0,1-1.62,3.07c16.46,5.23,34,5.95,51.22,6.63a51.8,51.8,0,0,0,10-.26,86.83,86.83,0,0,0,8.44-2.13,65.22,65.22,0,0,1,16.85-2.15,27.76,27.76,0,0,0,7.41-.5c2.4-.66,4.71-2.3,5.35-4.7a6.32,6.32,0,0,0-.08-3.37C475.5,485.47,473.28,487.05,471,487.72Z"/></g><path class="cls-8" d="M447,478.13c-.6,1.34-3.12,12.95-3.72,14.14s-3.87,20.25-4.17,21.31-21.56-4.47-21.56-4.47l-12.8-10.72-13.16-13.1s-.39-11.81,9.3-15.6a14.44,14.44,0,0,1,2-.63c11.75-2.83,10.57-38.57,10.57-38.57l24.13,10.42s-4.47,20.85-4.32,24.88c0,1.35,1.1,2.19,2.49,2.7a19.82,19.82,0,0,0,6.59.72S447.6,476.79,447,478.13Z"/><path class="cls-5" d="M490.2,517.3l3.42.9s2.54,3.85-3.42,7.44a103.82,103.82,0,0,0-10.88,7.6l-17.61,5.36L458.32,528l16.39-12.44Z"/><path class="cls-4" d="M490.2,517.3l3.42.9s2.54,3.85-3.42,7.44a103.82,103.82,0,0,0-10.88,7.6l-17.61,5.36L458.32,528l16.39-12.44Z"/><path class="cls-5" d="M361.68,527.58l-6.85,6.71s12.35,14.3,21.86,15.19,15.63-10.88,15.63-10.88l-8.22-13Z"/><path class="cls-4" d="M361.68,527.58l-6.85,6.71s12.35,14.3,21.86,15.19,15.63-10.88,15.63-10.88l-8.22-13Z"/><circle class="cls-4" cx="426.74" cy="430.02" r="23.83"/><circle class="cls-8" cx="426.74" cy="428.23" r="23.83"/><path class="cls-4" d="M469.49,628.27a77.09,77.09,0,0,0-15.94,3.58c-8.9,3-78.7,0-79.67,0v-2.68l3.42-8.49,40.48-5.07h19.37s29.15,6.85,32.16,9.81C469.43,627.2,469.49,628.27,469.49,628.27Z"/><path class="cls-4" d="M447,478.13c-.6,1.34-3.12,12.95-3.72,14.14s-3.87,20.25-4.17,21.31-21.56-4.47-21.56-4.47l-12.8-10.72-13.16-13.1s-.39-11.81,9.3-15.6L425,497.36l10.84-28.87a19.82,19.82,0,0,0,6.59.72S447.6,476.79,447,478.13Z"/><path class="cls-5" d="M425,498.25l-24.63-28.34a10.31,10.31,0,0,0-9.77-.72c-5.51,2.39-12.36,4.32-14.15,5.51s-8.5,8.56-8.5,8.56l20,52.23-8.79,34.41s1.34,17.58-2.08,24a26.34,26.34,0,0,0-2.84,13.25s1,8.5-.14,13a21.55,21.55,0,0,0-.16,9.08s70.76,3,79.69,0a77,77,0,0,1,15.95-3.57s-1.62-29.79-3.24-36.94,1.34-34.41,1.34-34.41l-1.93-29.19,11.61-30S471,475.89,464.43,474c0,0-11.91-2.84-14.45-4.17s-10-2.54-10-2.54l-3.91,1.32Z"/><rect class="cls-4" x="387.07" y="537.24" width="86.78" height="56.71" rx="2.38" ry="2.38" transform="translate(-163.04 956.7) rotate(-86.11)"/><rect class="cls-6" x="388.86" y="535.47" width="86.78" height="56.71" rx="2.38" ry="2.38" transform="translate(-159.6 956.82) rotate(-86.11)"/><rect class="cls-3" x="394.88" y="539.58" width="74.67" height="49.41" transform="translate(-160.09 957.22) rotate(-86.11)"/><rect class="cls-4" x="428.82" y="531.74" width="11.25" height="40.36" transform="translate(-146.47 946.77) rotate(-86)"/><rect class="cls-4" x="447.19" y="591.82" width="5.86" height="6.4" transform="translate(-174.07 1003.75) rotate(-86.11)"/><rect class="cls-4" x="427.73" y="563.62" width="5.86" height="32.78" transform="translate(-177.24 970.34) rotate(-86.11)"/><rect class="cls-6" x="431.45" y="512.19" width="9.01" height="34.14" transform="matrix(0.07, -1, 1, 0.07, -121.66, 928.31)"/><rect class="cls-4" x="431.45" y="512.19" width="9.01" height="34.14" transform="matrix(0.07, -1, 1, 0.07, -121.66, 928.31)"/><path class="cls-4" d="M427.93,626.63s-.3,44.1-11.91,69.41c0,0,14-33.36,14-34.7s7.74-15.34,5.67-19.51S427.93,626.63,427.93,626.63Z"/><path class="cls-4" d="M428.57,422.27a16.57,16.57,0,0,1,2.69-11.1,13.68,13.68,0,0,0,10.58,14.41,1.77,1.77,0,0,1-.51-2c1.66,1.88,2.93,4.11,4.81,5.76s4.69,2.64,6.9,1.46c3-1.62,3-5.88,2.26-9.2a43.29,43.29,0,0,0-9.95-19,13.19,13.19,0,0,0-10.44-5.31c-4.6-.35-9.38.05-13.5,2.12a35.83,35.83,0,0,0-6.48,4.52l-11.33,9.25a10.59,10.59,0,0,0-2.76,2.9,8,8,0,0,0-.86,3,16.37,16.37,0,0,0,7.63,15.44,12.08,12.08,0,0,1,7.23-11.33,3.12,3.12,0,0,1,1.13,2.34l2.39-4.26a4.58,4.58,0,0,1,1.62-1.92c1.47-.81,3.31.15,4.56,1.29s2.48,2.56,4.16,2.74l.07-6.34"/><path class="cls-6" d="M428.57,421.38a16.54,16.54,0,0,1,2.69-11.11,13.69,13.69,0,0,0,10.58,14.41,1.79,1.79,0,0,1-.51-1.95c1.66,1.88,2.94,4.1,4.81,5.76s4.7,2.64,6.91,1.45c3-1.62,3-5.88,2.26-9.19a43.29,43.29,0,0,0-9.95-19,16,16,0,0,0-5.56-4.32,16.18,16.18,0,0,0-4.86-1c-4.6-.35-9.38,0-13.5,2.11a36.39,36.39,0,0,0-6.48,4.53l-11.33,9.25a10.74,10.74,0,0,0-2.76,2.9,8,8,0,0,0-.85,3,16.37,16.37,0,0,0,7.62,15.44,12.11,12.11,0,0,1,7.23-11.34,3.12,3.12,0,0,1,1.13,2.34l2.38-4.24a4.58,4.58,0,0,1,1.62-1.92c1.47-.81,3.31.14,4.57,1.29s2.47,2.55,4.16,2.74l.06-6.35"/><path class="cls-8" d="M439.85,571.68c-2.08-1-36.49,4.31-36.49,4.31A196.84,196.84,0,0,0,384,572.12c-13.7-2.25-14.57-15.64-14.57-15.64l-1.5-26.81,4.62-4,19.81,13s.31,6.55,0,7.73a11.05,11.05,0,0,0-.67,2.43.83.83,0,0,0,.67.73c1.34.34,19.66,3.3,19.66,3.3s42.45-2.9,53,11.39a10.81,10.81,0,0,1,1.87,3.53C469.54,577.47,441.74,572.61,439.85,571.68Z"/><path class="cls-4" d="M466.94,567.75c-1.62.72-2.63,1.24-2.63,1.24s-15.19-.45-23.72-3.54-18.91-2.54-18.91-2.54-35.56-6.12-30-14.11a.82.82,0,0,0,.66.73c1.34.34,19.66,3.3,19.66,3.3s42.45-2.91,53,11.39A10.63,10.63,0,0,1,466.94,567.75Z"/><path class="cls-8" d="M481.7,520.58s2.09,14.74,2.24,15.94.9,15.64,0,17.28-2.24,4.32-2.24,4.32,1.49,3.12-4.46,4.32a61.37,61.37,0,0,0-13,4.76s-15.2-.44-23.68-3.57-18.92-2.53-18.92-2.53-45.14-7.75-25.77-17.21S429,547.24,429,547.24l21.59-1.33s8.05-4.93,10.29-4.47a8.24,8.24,0,0,0,4.61-.75l.15-15.64Z"/><path class="cls-4" d="M372.2,484.39l-4.32-.23-13.1,51s14.15-3.58,20.24,0,17.28,4.32,17.28,4.32l-4.17-40.67Z"/><path class="cls-5" d="M372.2,483.49l-4.32-.23-13.1,51s14.15-3.58,20.24,0,17.28,4.32,17.28,4.32l-4.17-40.67Z"/><path class="cls-4" d="M471.28,494.66l6,1.35s15.19,21.86,16.38,23.08-5.66,5.67-8.49,5.67-16.68,1.62-20.7,5.36-2.35-15.09-2.35-15.52,5-12.3,5-12.3Z"/><path class="cls-5" d="M471.28,493.77l6,1.34s15.19,21.9,16.38,23.09-5.66,5.67-8.49,5.67-16.68,1.62-20.7,5.36-2.35-15.09-2.35-15.52,5-12.34,5-12.34Z"/><g class="cls-7"><path d="M431.22,410.34a12.84,12.84,0,0,1,0-1.86,16.58,16.58,0,0,0-2.49,6.11v2.26c0,1.31,0,2.63,0,3.95h-.12v.6a3.23,3.23,0,0,0,0-.62c-1.62-.26-2.77-1.62-4-2.71S421.5,416,420,416.79a4.73,4.73,0,0,0-1.62,1.92L416,423a3.12,3.12,0,0,0-1.13-2.33A12.08,12.08,0,0,0,407.64,432a16.47,16.47,0,0,1-7.68-12.9,16.36,16.36,0,0,0,7.68,14.68,12.09,12.09,0,0,1,7.23-11.33,3.12,3.12,0,0,1,1.13,2.34l2.38-4.24a4.58,4.58,0,0,1,1.62-1.92c1.47-.81,3.31.14,4.57,1.28s2.47,2.56,4.16,2.75q0-3.11.06-6.2A16.63,16.63,0,0,1,431.22,410.34Z"/><path d="M428.48,418.5c0-.56.11-1.11.19-1.62l.09-2.24A16.62,16.62,0,0,0,428.48,418.5Z"/><path d="M453.05,428.15c-2.21,1.19-5,.2-6.91-1.45s-3.15-3.88-4.81-5.76a1.8,1.8,0,0,0,.51,2,2,2,0,0,1-.47-.12c1.62,1.86,2.91,4.05,4.77,5.67s4.7,2.64,6.91,1.45,2.84-3.95,2.65-6.64C455.55,425.38,454.79,427.22,453.05,428.15Z"/><path d="M441.33,422.76a13.76,13.76,0,0,1-10.09-12,13.67,13.67,0,0,0,10.6,13.95A1.78,1.78,0,0,1,441.33,422.76Z"/></g><path class="cls-9" d="M830.17,555.1S827,554.65,827,550s-2.29-13.33-2.29-13.33h0s-2-15.11-4.7-17.51-6.24-16.47-6.24-16.47-.6-7.63-1.82-9.28-2.87-5.66-5.31-11.41-12.57-9.67-12.57-9.67-18.38-10.66-23.58-14.13h0a8.12,8.12,0,0,1-1.33-1c-.91-1.19-4.86-1.21-4.86-1.21a81.1,81.1,0,0,1-.94-8.32v-.88a28,28,0,0,0,12.32-15.24c.1-.3.18-.62.27-.94a2.63,2.63,0,0,0,1.61-1.42c.47-1.05.48-2.26,1.07-3.24.68-1.15,2-1.76,3-2.62,2.58-2.2,3.24-5.88,3.12-9.22-.08-2.73-.52-5.46-.35-8.16a3.16,3.16,0,0,1,0-.68c.05-.4.1-.81.18-1.2.39-2,1.26-3.9,1.75-5.89a7.62,7.62,0,0,0-.6-5.95c-1.66-2.52-5.12-3-8.16-3.24-3.44-.29-6.47.08-8.72-2.78a31.47,31.47,0,0,0-3.46-4.18c-.46-.42-4.86-3.11-4.86-3.28a19.66,19.66,0,0,0-13.77-1.06c-2.29.66-4.43,1.74-6.76,2.29-5,1.18-10.73-.1-15,2.76-2.37,1.62-3.79,4.2-5.11,6.7q-1.62,3.09-3.29,6.2c-1.8,3.39-3.61,6.84-4.37,10.6a18.84,18.84,0,0,0-.29,2.48h0V410a5.43,5.43,0,0,0,0,.81,4,4,0,0,0,.06.5c.06.17.07.55.12.81s.15.72.24,1.07a1.59,1.59,0,0,0,.15.45c0,.16.18.54.28.81s.12.28.18.42a7.65,7.65,0,0,0,.41.81c.07.11.12.21.18.32a8,8,0,0,0,.75,1.08c1.72,2.16,4.28,3.54,6.17,5.57v.9a27.71,27.71,0,0,0,12.69,22.59c0,.31,0,.63.06.94a45.68,45.68,0,0,1-.09,7.21,3.4,3.4,0,0,0-2.69-1.2,3.56,3.56,0,0,0-1,.09l-.08-.06h0v.07c-1.78.44-4,2.3-6.07,7.57,0,0-6.38,7.19-11.24,6.89S695,475.16,695,475.16s-12,7.78-14.58,15.71a110.49,110.49,0,0,1-5.17,13.18L660.34,534.6h0l-2.72,24.29s1.51,10.77,1.21,12.42,6.23,16.47,6.23,16.47,21.56,37.88,30.37,39.82l.63-.43a5.64,5.64,0,0,0,1.19.43l1.81-1.27a19.06,19.06,0,0,1-.14,4.27c-1.21,3.75.46,28.15,2.58,32.94s1.37,67.53,1.37,67.53l-.3,5.53a2.48,2.48,0,0,0,.07.49l-.07,1.31.22.11a15.87,15.87,0,0,1-.22,5.28c-.76,2.43-1.07,9.29-1.07,9.29s-6.07,38.77-3.19,46.55S703.63,816,703.63,816s3,9.71.14,11.33-11.07,4.5-9.4,8.54c1.53,3.74,7.37,13.76,8.24,15.23l-.07.81-1.19,12.9a16.23,16.23,0,0,0,1.36,4.92c1.31,2.82,3.83,5.72,8.66,5.41.81-.06,1.74-.15,2.66-.27,8.81-1.19,19.66-5.13,19.66-5.13a7.71,7.71,0,0,1-1.53-1.27h0a4.48,4.48,0,0,1-1.35-3.24c.13-2.35-4.27-13.53-5.37-16.29l-.25-.62s10-10.49,8.36-19.76c0,0-11.1-6.48-7.44-10s10.17-13.77,10.17-13.77.3-38.18,0-43.87a47.51,47.51,0,0,1,.56-11.85c.12-.58.27-1.16.42-1.73a102.77,102.77,0,0,0,15.27,1.15c1.87,0,3.76,0,5.67-.11,0,.54,0,1.12.07,1.75.43,9.46,1.21,26.05,1.85,32.21C761,791.08,766,814.9,766,814.9s-9.56,6.13,1.67,21.26c0,0,0,5.47-.75,6.27h0a71.75,71.75,0,0,0-1.92,7.91c-.47,2.85-.66,5.74.1,7.23,1.82,3.58,12.75,3.28,12.75,3.28h0l.27,0a15.59,15.59,0,0,1,11.57,3.49c4.15,3.33,19.91,1.87,28.45.81,3.35-.43,5.58-.81,5.58-.81a3.09,3.09,0,0,0,.11-1.17h0c-.08-2.1-1.73-6.7-12.87-10.8,0,0-10.48-7.05-10.33-13.18h-1.44c.76,0,1.29,0,1.29,0s-4.1-15-2.43-16.19-3.34-17.81-3.34-17.81-2.87-27.86-3-29.8a16.93,16.93,0,0,1,.77-4.94l-.77-15.28s-.14-5.07,0-6.73a30.74,30.74,0,0,0-.34-4.28c-.07-.57-.14-1.16-.22-1.74,3.92-1,6.47-1.91,6.47-1.91l-.45-53.16c3.34-6.47,4-20.69,3.94-30.76,0-6.48-.3-11.27-.3-11.27l4.56-7.45s1.06-8.9-.61-10.85a1.86,1.86,0,0,1,.2-2.55,8.83,8.83,0,0,1,1-.72,1,1,0,0,1-.1-.17,7.13,7.13,0,0,1,1-.72s-1.62-2.51-.17-3.58c1.36.93,2.57,1.66,3.5,2.19-.07.59-.13.93-.13.93l.39-.81,1.43.81s7.14-14.22,7-16.31,4.85-10.93,4.85-10.93.61-4.65,3.35-6.59,2.12-16,2.12-16,.76-7.33,2.58-10.32S830.17,555.1,830.17,555.1Zm-136.65-6.25.14,3.4L692.27,550Z"/><path class="cls-3" d="M812.32,616.18l-1.75,7.45s-14-7.17-16.52-16.24,4.21-12.52,4.21-12.52l13.06,5.52Z"/><path class="cls-4" d="M812.32,616.18l-1.75,7.45s-14-7.17-16.52-16.24,4.21-12.52,4.21-12.52l13.06,5.52Z"/><path class="cls-3" d="M733.71,869.7s-13,4.76-21.86,5.36c-4.73.31-7.22-2.59-8.5-5.38a16.72,16.72,0,0,1-1.34-4.86L703.18,852l.62-6.83,18.92-4.92,2.68,8.2.25.62c1.07,2.74,5.39,13.87,5.27,16.19a4.38,4.38,0,0,0,1.32,3.24A7.46,7.46,0,0,0,733.71,869.7Z"/><path class="cls-3" d="M822.16,863.17a3.31,3.31,0,0,1-.12,1.17s-27.7,4.61-33.37,0A15,15,0,0,0,777,860.91s-10.72.29-12.51-3.24c-.74-1.48-.55-4.35-.09-7.18a70.37,70.37,0,0,1,1.88-7.87l.43-.34,2.55-2,29.86-.88h.23c-.15,6.1,10.13,13.11,10.13,13.11C820.46,856.51,822.07,861.08,822.16,863.17Z"/><path class="cls-4" d="M822.17,863.17a3.57,3.57,0,0,1-.13,1.17s-27.7,4.61-33.36,0A15,15,0,0,0,777,860.91s-10.73.29-12.51-3.24c-.74-1.48-.56-4.35-.09-7.19,4.13.42,10.64,1.44,13.2,3.91,3.87,3.72,10.43,7.44,14.45,7.74C795.26,862.33,814.13,862.93,822.17,863.17Z"/><path class="cls-10" d="M752.93,486c-10.69-4.16-24.44-17.88-21-24.29a14.42,14.42,0,0,0,1.33-5.15,46.69,46.69,0,0,0,.1-7.29,100.49,100.49,0,0,0-1.43-11.86s33.36.75,31.42,5.67c-.57,1.45-.66,3.95-.5,6.74s.56,6,1,8.66C764.4,462.15,765,465,765,465s-2,2.86-3.23,3S768.27,492,752.93,486Z"/><path class="cls-4" d="M725.62,849l-.25.27c-10-12.06-22,3-22,3l-.18-.32.62-6.83,18.92-4.92,2.68,8.2Z"/><path class="cls-4" d="M799.41,840.2s-7.29-.15-11.18,3.29-22.67.73-21.86,0a2.78,2.78,0,0,0,.42-1.24l2.55-2,29.86-.88C799.32,839.88,799.41,840.2,799.41,840.2Z"/><path class="cls-5" d="M738,745.46a23,23,0,0,0-1.23,4.15,48,48,0,0,0-.56,11.79c.3,5.67,0,43.65,0,43.65s-6.4,10.13-10,13.7,7.29,10,7.29,10c1.62,9.24-8.2,19.67-8.2,19.67-10-12.06-22,3-22,3S696.76,840,695.12,836s6.4-6.84,9.23-8.49-.15-11.34-.15-11.34-2.38-8.49-5.21-16.24,3.13-46.32,3.13-46.32.3-6.85,1-9.24a15.7,15.7,0,0,0,.22-5.25c0-.59-.11-1.08-.15-1.42s-.07-.48-.07-.48l.11-.2,4.05-7.54S740,740.71,738,745.46Z"/><path class="cls-5" d="M799.41,839.31s-7.29-.15-11.18,3.24-22.67.74-21.86,0,.74-6.25.74-6.25c-11-15.06-1.62-21.16-1.62-21.16s-4.92-23.68-5.81-32.47c-.62-6.13-1.39-22.67-1.8-32-.18-4-.29-6.84-.29-6.84l8.93-1.77,1.15-.23,21.72-4.36s.6,4.05,1,7.36a32,32,0,0,1,.34,4.26c-.14,1.62,0,6.7,0,6.7l.74,15.19a17.38,17.38,0,0,0-.74,4.91c.15,1.95,3,29.65,3,29.65s4.91,16.53,3.23,17.72S799.41,839.31,799.41,839.31Z"/><path class="cls-4" d="M763.35,443.1c-.57,1.45-.66,3.95-.5,6.75a27.76,27.76,0,0,1-29.49-.55,100.91,100.91,0,0,0-1.43-11.87S765.29,438.19,763.35,443.1Z"/><path class="cls-10" d="M776.23,425.22a27.7,27.7,0,0,1-55.4.67v-.67a27.71,27.71,0,0,1,55.42,0Z"/><path class="cls-4" d="M752.93,486c-10.69-4.16-24.44-17.88-21-24.29a14.42,14.42,0,0,0,1.33-5.15l14.63,12L757,476l6.88-17.52C764.4,462.17,765,465,765,465s-2,2.86-3.23,3S768.27,492,752.93,486Z"/><polygon class="cls-5" points="790.77 539.17 778.55 744.42 762.61 745.47 721.35 626.45 728.11 485.16 729.55 455.3 747.89 470.37 756.95 477.8 764.03 459.76 777.21 471.25 790.77 539.17"/><path class="cls-4" d="M738,745.46a23,23,0,0,0-1.23,4.15,117.26,117.26,0,0,1-33.44-10.43l-.22-.12.08-1.3v-.68l4-7.55S740,740.71,738,745.46Z"/><path class="cls-4" d="M766.78,749.65a81.43,81.43,0,0,1-8.95,1c-.18-4-.28-6.84-.28-6.84l9-1.81Z"/><path class="cls-4" d="M790.43,744.79c-5.76,1.5-14.66,3.18-22.61,2.13l-.11-5.13,21.71-4.36S790,741.44,790.43,744.79Z"/><path class="cls-4" d="M767.67,747.86c-33.19,5.66-63.6-10.59-63.6-10.59l.3-5.5s.75-62.42-1.34-67.21-3.72-29-2.53-32.71-4.32-59.57-4.32-59.57l-.89-22.67-32.62-13.26L677.24,506a109.58,109.58,0,0,0,5.07-13.11c2.53-7.9,14.3-15.64,14.3-15.64s12.06-7.75,16.83-7.45,11-6.85,11-6.85c4.62-11.77,8.8-6.48,8.8-6.48a10.22,10.22,0,0,1-.23,1.74c-1.62,12.91,26.18,53.72,26.58,54.45h0l2.68,64.5L765,658.74Z"/><path class="cls-3" d="M766.78,747.86c-33.19,5.66-63.6-10.59-63.6-10.59l.3-5.5s.74-62.42-1.35-67.21-3.72-29-2.52-32.77-4.34-59.54-4.34-59.54l-.9-22.68-32.62-13.25,14.58-30.39a113.07,113.07,0,0,0,5.07-13.11c2.53-7.87,14.33-15.62,14.33-15.62s12.07-7.74,16.83-7.45,11-6.84,11-6.84c4.63-11.77,9.72-6.48,9.72-6.48,0,.57-.49.81-.23,1.74,3.57,12.53,25.3,53.72,25.69,54.45h0l2.68,64.5,2.63,81.66Z"/><path class="cls-4" d="M757.84,514.44c-3.57-1.49-22.49-23.08-22.49-23.08v-4.92c-.69-1.62-4.78-.63-8.09.51l1.42-29.86,1.62,1.35C733.84,471,757.45,513.72,757.84,514.44Z"/><path class="cls-3" d="M758.74,512.66c-3.58-1.5-22.5-23.08-22.5-23.08v-4.93c-.69-1.62-4.77-.63-8.09.51l1.4-29.82,1.62,1.33C734.74,469.17,758.34,511.93,758.74,512.66Z"/><path class="cls-4" d="M704.07,620.35c.45,0,23.09-2.38,23.09-2.38s13.71,27,12.81,33.51-2.53,12.36-8,11.34-29.68.81-29.68.81Z"/><path class="cls-3" d="M703.18,618.56c.45,0,23.09-2.38,23.09-2.38s13.7,27,12.81,33.48S736.54,662,731,661s-29.69.81-29.69.81Z"/><path class="cls-10" d="M720.24,605.94s20.77,11.17,21.22,14.57-10.58-1.49-13-2.09a30.72,30.72,0,0,0-4.77-.74l-15.87.43Z"/><circle class="cls-4" cx="752.03" cy="513.65" r="2.19"/><circle class="cls-6" cx="752.03" cy="512.76" r="2.19"/><circle class="cls-4" cx="756.06" cy="608.28" r="2.19"/><circle class="cls-6" cx="756.06" cy="607.39" r="2.19"/><circle class="cls-4" cx="754.22" cy="560.97" r="2.19"/><circle class="cls-6" cx="754.22" cy="560.08" r="2.19"/><path class="cls-3" d="M804.61,617.22s1.49,2.24,0,3.24.15,3.58.15,3.58-3.72,2.17-2.08,4.14.6,10.8.6,10.8l-4.47,7.44s.26,4.77.28,11.21c0,10.06-.59,24.2-3.86,30.64l.44,52.88s-15.66,5.73-28.76,4L765,660.27s2.83-48.12,3.88-57.35a95.59,95.59,0,0,0,.74-14.45s-.44-14.44-1.94-21.14c0,0-1.62-29.05-1.78-37.09-.07-3.85.13-15.07.36-25.74.25-11.67.53-22.67.53-22.67l-3-23.39s3-.29,3.85.89a8.41,8.41,0,0,0,1.3,1h0c5.1,3.45,23.13,14.06,23.13,14.06s10,4,12.36,9.65,4,9.72,5.21,11.34,1.79,9.23,1.79,9.23,3.43,14,6.11,16.38,4.61,17.43,4.61,17.43L798.47,557s-2.08,31-2.52,32.18S804.61,617.22,804.61,617.22Z"/><path class="cls-3" d="M805.51,617.22s1.48,2.24,0,3.24.14,3.58.14,3.58-3.72,2.17-2.08,4.14.6,10.8.6,10.8l-4.46,7.44s.27,4.77.3,11.21c0,10.06-.6,24.2-3.87,30.64l.45,52.88s-15.65,5.73-28.75,4l-1.94-84.86s2.83-48.12,3.88-57.35a95.59,95.59,0,0,0,.74-14.45s-.45-14.44-1.94-21.14c0,0-1.62-29.05-1.79-37.09-.07-3.85.13-15.07.36-25.74.25-11.67.53-22.67.53-22.67l-3.9-23.71s3.9,0,4.8,1.21a7.83,7.83,0,0,0,1.3,1h0C775,463.77,793,474.38,793,474.38s10,4,12.38,9.65,4,9.72,5.21,11.34,1.79,9.23,1.79,9.23,3.43,14,6.11,16.38,4.62,17.43,4.62,17.43L799.42,557s-2.08,31-2.53,32.18S805.51,617.22,805.51,617.22Z"/><path class="cls-4" d="M777.15,488.7l2.14,6.24L768,506.27c.25-11.66.54-22.67.54-22.67l-3.91-23.7s3.91,0,4.8,1.21a7.32,7.32,0,0,0,1.3,1h0l9.57,27.61Z"/><path class="cls-3" d="M776.23,486.91l2.15,6.23-11.26,11.34c.25-11.67.54-22.68.54-22.68l-3.91-23.7s3.91,0,4.8,1.2a8.25,8.25,0,0,0,1.29,1h0l9.63,27.63Z"/><path class="cls-4" d="M776.23,425.22a27.22,27.22,0,0,1-1.36,8.59,1.09,1.09,0,0,1-.87-.21c-.22-7.28-3.8-14.13-8.21-20a20.8,20.8,0,0,0-4.46-4.62,8.71,8.71,0,0,0-6-1.71c-2.42.33-4.57,2-7,2.2-3.24.26-6.14-2-9.36-2.08a9.13,9.13,0,0,0-6.87,3.19,18.69,18.69,0,0,0-3.68,6.82,39.8,39.8,0,0,0-2.06,11.79c0,2.27-.26,5.11-2.36,5.93a12.09,12.09,0,0,0-3.06-9.23l0-.05v-.67a27.71,27.71,0,0,1,55.42,0Z"/><path class="cls-11" d="M760,381.23a19.14,19.14,0,0,0-13.46-1.05c-2.24.67-4.35,1.74-6.63,2.28-4.86,1.18-10.52-.09-14.69,2.75-2.32,1.62-3.71,4.18-5,6.67L717,398c-1.76,3.38-3.54,6.81-4.28,10.53s-.29,7.88,2.06,10.87c1.71,2.17,4.26,3.54,6.12,5.59a12.14,12.14,0,0,1,3,9.25c2.11-.81,2.32-3.66,2.37-5.93a40.05,40.05,0,0,1,2-11.79,18.83,18.83,0,0,1,3.69-6.83,9.17,9.17,0,0,1,6.87-3.19c3.24.11,6.15,2.35,9.35,2.08,2.43-.2,4.59-1.86,7-2.19a8.71,8.71,0,0,1,6,1.71,21.15,21.15,0,0,1,4.45,4.61c4.42,5.83,8,12.65,8.21,20,.92.67,2.24-.21,2.69-1.24s.47-2.25,1-3.24c.66-1.14,1.93-1.76,2.93-2.62,2.52-2.18,3.16-5.84,3.06-9.17s-.75-6.71-.11-10c.38-2,1.23-3.88,1.7-5.87a7.68,7.68,0,0,0-.58-5.92c-1.62-2.5-5-3-8-3.23-3.38-.3-6.4.08-8.55-2.76a31,31,0,0,0-3.4-4.17C764.36,384.08,760,381.41,760,381.23Z"/><path class="cls-4" d="M672,552l-8.45-15.64-2.68,24.13s1.49,10.72,1.19,12.37,6.1,16.38,6.1,16.38,21.16,37.69,29.8,39.62L727.12,608l-7.74-9.83s-2.68-1-3.35,0c0,0-14.38-24.72-15.87-26.5s-1.19-5.37-1.19-5.37-2.24-2.38-1.49-4.62-4.28-10-4.28-10l4.62-4.32Z"/><path class="cls-3" d="M664,534.55l-2.23,1.79-2.68,24.13s1.49,10.72,1.19,12.37,6.11,16.38,6.11,16.38,21.15,37.69,29.79,39.62L725.38,608l-7.75-9.83s-2.68-1-3.35,0c0,0-14.38-24.72-15.87-26.5s-1.19-5.37-1.19-5.37-2.23-2.38-1.49-4.62-4.32-10-4.32-10l4.62-4.32Z"/><path class="cls-4" d="M802.68,629.11c1.62,2,.6,10.81.6,10.81l-4.47,7.39s.26,4.78.28,11.22l-7.51,2.35a4.47,4.47,0,0,1-5.6-2.94,4.26,4.26,0,0,1-.2-1.46l1.3-41.78,17.53,6.69c-1.49,1,.15,3.58.15,3.58S801,627.14,802.68,629.11Z"/><path class="cls-3" d="M803.57,628.22c1.62,2,.6,10.8.6,10.8l-4.46,7.4s.27,4.77.3,11.21L792.35,660a4.35,4.35,0,0,1-5.66-4.3L788,613.8l17.52,6.71c-1.5,1,.14,3.58.14,3.58S801.93,626.25,803.57,628.22Z"/><path class="cls-10" d="M809.38,608.28s-1.19,7.61-4.17,8.05-4.31,12.3-7.29,11.89-1-11-.89-13.09-3.24-10.57-.75-12.51,10.43,0,10.43,0Z"/><path class="cls-4" d="M815.68,549.74l5.61-11.33s2.24,8.64,2.24,13.25,3.13,5.07,3.13,5.07,3.42,4,1.62,7S825.75,574,825.75,574s.59,14-2.09,15.93-3.28,6.56-3.28,6.56-4.91,8.79-4.76,10.88-6.85,16.23-6.85,16.23,3.43-17.58-16.53-25.17c0,0-.15-6,1.34-7.6s3.81-2.43,2.35-10.65-.42-18.15-.42-20.13S800,545.71,800,545.71Z"/><path class="cls-3" d="M818.17,536.79l4.91,1.62s2.24,8.64,2.24,13.25,3.13,5.07,3.13,5.07,3.42,4,1.62,7S827.53,574,827.53,574s.6,14-2.08,15.93-3.24,6.56-3.24,6.56-4.91,8.79-4.76,10.88-6.85,16.23-6.85,16.23S814,606,794.06,598.44c0,0-.14-6,1.35-7.6s3.81-2.43,2.35-10.65-.42-18.15-.42-20.13,4.47-14.35,4.47-14.35Z"/><path class="cls-4" d="M709.77,830.6s7.83-4.92,13-1.35S709.77,830.6,709.77,830.6Z"/><path class="cls-4" d="M770.57,815.4a15.82,15.82,0,0,1,12.73,5.37C789.11,827,770.57,815.4,770.57,815.4Z"/><g class="cls-7"><path d="M780.68,423.83c-1,.87-2.28,1.47-2.94,2.62-.57,1-.58,2.19-1,3.24s-1.77,1.91-2.69,1.24c-.21-7.28-3.8-14.13-8.21-20a20.89,20.89,0,0,0-4.45-4.6,8.69,8.69,0,0,0-6.05-1.72c-2.43.33-4.56,2-7,2.19-3.24.27-6.14-2-9.36-2.08a9.15,9.15,0,0,0-6.86,3.19,18.83,18.83,0,0,0-3.69,6.83,40.05,40.05,0,0,0-2,11.79c-.05,2.26-.26,5.07-2.35,5.92a10.82,10.82,0,0,1,0,1.8c2.11-.81,2.32-3.67,2.37-5.93a39.74,39.74,0,0,1,2.06-11.79,18.81,18.81,0,0,1,3.68-6.83,9.2,9.2,0,0,1,6.87-3.2c3.24.12,6.15,2.36,9.36,2.09,2.43-.21,4.58-1.86,7-2.19a8.75,8.75,0,0,1,6,1.71,20.66,20.66,0,0,1,4.44,4.61c4.41,5.83,8,12.65,8.21,20,.92.67,2.24-.21,2.7-1.25s.47-2.25,1-3.23c.67-1.15,2-1.76,2.94-2.62,2.53-2.18,3.16-5.85,3.06-9.17v-.31C783.6,419,782.83,422,780.68,423.83Z"/><path d="M720.9,423.26c-1.85-2-4.4-3.42-6.11-5.59a11.78,11.78,0,0,1-2.35-6.62,12.46,12.46,0,0,0,2.35,8.41c1.71,2.17,4.26,3.54,6.11,5.59a12.12,12.12,0,0,1,3.06,7.22A12.15,12.15,0,0,0,720.9,423.26Z"/><path d="M785.33,398.81c-.47,2-1.32,3.87-1.71,5.87a18.16,18.16,0,0,0-.25,4.1,15,15,0,0,1,.25-2.31c.39-2,1.24-3.88,1.71-5.87a10,10,0,0,0,.27-3.35A10.17,10.17,0,0,1,785.33,398.81Z"/></g><ellipse class="cls-1" cx="154.14" cy="844.62" rx="78.89" ry="12.67"/><rect class="cls-12" x="151.61" y="601.87" width="5.08" height="114.3"/><path class="cls-6" d="M188.59,715.83l-.32,5.15-.45,7.29-.18,3-.46,7.29-.19,3-.44,7.29-5.13,82.64a14,14,0,0,1-14,13.14H140.84a14,14,0,0,1-14-13.19l-5.12-82.65-.45-7.28-.18-3-.47-7.29-.18-3-.45-7.28-.32-5.15a7.28,7.28,0,0,1,6.86-7.69h54.8a7.28,7.28,0,0,1,7.25,7.32C188.61,715.55,188.6,715.69,188.59,715.83Z"/><polygon class="cls-13" points="188.27 720.98 187.82 728.25 120.47 728.25 120.01 720.98 188.27 720.98"/><polygon class="cls-13" points="187.63 731.27 187.19 738.54 121.11 738.54 120.65 731.27 187.63 731.27"/><polygon class="cls-13" points="186.99 741.58 186.54 748.84 121.75 748.84 121.29 741.58 186.99 741.58"/><path class="cls-5" d="M112.3,644.72c29.57,21.39,41.88,54.85,41.88,54.85S118.56,698.34,89,677s-41.91-54.82-41.91-54.82S82.7,623.33,112.3,644.72Z"/><path class="cls-14" d="M47.07,622.13s37,20.52,48.84,37.52,58.24,39.93,58.24,39.93"/><path class="cls-5" d="M131.35,601.63c16.1,11.63,22.8,29.84,22.8,29.84s-19.43-.66-35.49-12.3-22.8-29.85-22.8-29.85S115.26,590,131.35,601.63Z"/><path class="cls-14" d="M95.86,589.32s20.13,11.17,26.59,20.42,31.7,21.73,31.7,21.73"/><path class="cls-5" d="M177.53,630.55c-18.48,20.31-22.39,46.86-22.39,46.86s26.06-6.39,44.53-26.72,22.4-46.86,22.4-46.86S196,610.24,177.53,630.55Z"/><path class="cls-14" d="M222.08,603.84S198,624.66,191.88,639s-36.74,38.4-36.74,38.4"/></svg>