<svg id="Layer_1" data-name="Layer 1" xmlns="http://www.w3.org/2000/svg" xmlns:xlink="http://www.w3.org/1999/xlink" viewBox="0 0 1024 1024"><defs><style>.cls-1,.cls-8{fill:#6c63ff;}.cls-1,.cls-4,.cls-7{opacity:0.1;}.cls-1,.cls-11,.cls-14,.cls-7{isolation:isolate;}.cls-2{fill:url(#linear-gradient);}.cls-3{fill:#3f3d56;}.cls-5{fill:#7c583a;}.cls-6{fill:#575a89;}.cls-9{fill:#444053;}.cls-10{fill:#f6f8fb;}.cls-11{opacity:0.05;}.cls-12{fill:#ffd037;}.cls-13{fill:#a8a8a8;}.cls-14{opacity:0.2;}</style><linearGradient id="linear-gradient" x1="824.25" y1="1039.21" x2="824.25" y2="660.54" gradientTransform="translate(-49.99 -257.29)" gradientUnits="userSpaceOnUse"><stop offset="0" stop-color="gray" stop-opacity="0.25"/><stop offset="0.54" stop-color="gray" stop-opacity="0.12"/><stop offset="1" stop-color="gray" stop-opacity="0.1"/></linearGradient></defs><title>icons</title><path class="cls-1" d="M99.57,499.19c13.34,51.42,41.46,95.94,86,117.48,92.5,44.82,301.09,21.68,456.8-4.83C722.89,598.12,793.7,560.26,845.12,507Z"/><path class="cls-1" d="M916,257H830.56c-4.07,0-7.36-3-7.36-6.67s3.29-6.67,7.36-6.67h14.79c-4.07,0-7.36-3-7.36-6.67s3.29-6.66,7.36-6.66H834.77c-4.06,0-7.36-3-7.36-6.67s3.3-6.67,7.36-6.67h44.6a128.33,128.33,0,0,0-34.79-8.66C723,194.2,679.67,203.55,664.34,213.13a179.45,179.45,0,0,1-62.45,24.75c-75,14-215.26,30.88-342.39-5.37-63.3-18-110.27,12.42-138.39,63.3H930.87c-1.08-14.79-4.22-28.43-10-40.38A7.82,7.82,0,0,1,916,257Z"/><path class="cls-1" d="M92.37,391.83a308.93,308.93,0,0,0,3.29,89.73l750,24.83a318.79,318.79,0,0,0,52.11-71.88Zm296.64,64H374.22c4.06,0,7.35,3,7.35,6.66s-3.29,6.67-7.35,6.67H288.77c-4.06,0-7.35-3-7.35-6.67s3.29-6.66,7.35-6.66h14.79c-4.06,0-7.35-3-7.35-6.67s3.29-6.67,7.35-6.67H293c-4.06,0-7.36-3-7.36-6.66s3.3-6.67,7.36-6.67h85.44c4.06,0,7.36,3,7.36,6.67s-3.3,6.66-7.36,6.66H389c4.06,0,7.35,3,7.35,6.67S393.07,455.82,389,455.82Z"/><path class="cls-1" d="M930.87,296.27l-818.81,18c-10,23.14-16.55,49.35-19.61,76.48h824A288.78,288.78,0,0,0,928.34,342,204.5,204.5,0,0,0,930.87,296.27ZM258.73,355.35H243.94c4.07,0,7.36,3,7.36,6.67s-3.29,6.67-7.36,6.67H158.5c-4.06,0-7.36-3-7.36-6.67s3.3-6.67,7.36-6.67h14.79c-4.06,0-7.36-3-7.36-6.66s3.3-6.67,7.36-6.67H162.72c-4.07,0-7.36-3-7.36-6.67s3.29-6.66,7.36-6.66h85.44c4.06,0,7.36,3,7.36,6.66s-3.3,6.67-7.36,6.67h10.57c4.07,0,7.36,3,7.36,6.67S262.8,355.35,258.73,355.35Z"/><ellipse class="cls-1" cx="508.25" cy="768.16" rx="342.54" ry="31.5"/><path class="cls-2" d="M857.3,507.85v-.38h0a6.08,6.08,0,0,0-1-2.46,19.43,19.43,0,0,0-7.12-6.74c-5.06-2.76-12-4-14-9.27a29.43,29.43,0,0,1-.92-5.14A15.4,15.4,0,0,0,824,472.22c-2.38-.77-5-1-7.36-2-5.21-2.22-8-7.66-10.35-12.79-3-6.52-6-13.11-9-19.62a7.65,7.65,0,0,1-7.43-.84,15.4,15.4,0,0,1-4.83-6c-3.14-6.06-4.44-12.95-8.12-18.7s-11-10.35-17.47-7.82a34.17,34.17,0,0,1-3.91,1.61c-5.52,1.31-11.65-5.05-16.4-2a5.3,5.3,0,0,0-1.84,2.07V406a9,9,0,0,0-1,4h0v1c0,1.07.08,2.22.08,3.37a18,18,0,0,1-.23,2.83v-.07a12.65,12.65,0,0,1-.38,1.53c-1.23,3.3-4.68,5.44-6.29,8.58v-.15c-.15.31-.3.69-.46,1.07a7.57,7.57,0,0,0-.46,2.53c-.15,5.83,6.06,11.34,6.75,17.63.53,4.44,1.53,5.9,5.28,8.35l.85.54c-.31,0-.69.07-1.08.07a1,1,0,0,0-.46.08,4.45,4.45,0,0,0-3.9.69c-2.92,2.3-9.74.54-12.8,0s-13.49.92-14.94,6.67-4,17.7-4,17.7,0,7.58-.92,9v.31c0,2.15.08,14.87-2,18.16-.54.77-.46,2.45-.08,4.52-2.14,2.76-4.21,6.06-3.83,8.13.69,4.36,9.5,18.08,22.15,10.72,0,0,7.2-13.18-1.84-20.23l.38-1.53c2.76,3.37,4.75,5.82,4.75,5.82a4.35,4.35,0,0,0,.31.77h-.31a37.26,37.26,0,0,1,2.15,10,10.1,10.1,0,0,1-.69,3.68h.23c-.08.23-.15.53-.23.76a6.63,6.63,0,0,1-2.38,3.22c-6.36,4.52-13.56,36.56-13.56,36.56s-14.1,52-17,54.86c-2.38,2.46,12.56,9.28,23.75,8.43a18.39,18.39,0,0,0,4.6-.84c.08.77.15,1.53.23,2.22.23,2.3.46,4.45.61,5.14.39,1.68,1.15,18.69,1.15,18.69s-1.61,11.12-1.22,18.78a9.79,9.79,0,0,0,.15,1.53l-1.38.23c-2.14,4.75,6.59,44.37,7.82,47.74a32.6,32.6,0,0,1,1.3,8s-.77,2.83-.15,4.37a9.48,9.48,0,0,1,.76,2.91,8.2,8.2,0,0,0,.23,4.21c.77,1.69-.15,4.6-.15,4.6s-.23,11.57-2.61,17.86a10.23,10.23,0,0,0,1.69,10.19,2,2,0,0,0,.54.61s13.1.08,15.4,0h.31c.92-.15,3.29-10.5,1.15-15.55s-.23-11.19-.23-11.19V746s2.37-2.22,0-6.9-2-6.13-2-6.13,2.69-7.59-.15-10,.54-11.65.54-11.65l.92-30.8a8.67,8.67,0,0,0-1.54-.38c-.07-.54-.07-1-.15-1.61-.54-5.6-1-13.18.23-15.33s1.76-21,2-34.1l12.11.46c.23,6.13.54,11.72.69,12.41.38,1.69,1.23,18.7,1.23,18.7s-1.61,11.11-1.23,18.78a11.48,11.48,0,0,0,.15,1.53l-1.38.23c-2.14,4.75,6.59,44.37,7.82,47.74a31.62,31.62,0,0,1,1.3,8.05s-.76,2.83-.15,4.36a9.85,9.85,0,0,1,.77,2.92,8.08,8.08,0,0,0,.23,4.21c.76,1.69-.16,4.6-.16,4.6s-.23,11.57-2.6,17.85a10.42,10.42,0,0,0,1.68,10.2,2.12,2.12,0,0,0,.54.61s13.1.08,15.4,0h.31c.92-.15,3.29-10.5,1.15-15.56s-.23-11.19-.23-11.19v-9.11s2.37-2.23,0-6.9-2-6.13-2-6.13,2.68-7.59-.16-10,.54-11.65.54-11.65l.92-30.8a11.08,11.08,0,0,0-1.53-.39c-.08-.53-.08-1-.16-1.61-.53-5.59-1-13.18.23-15.32,1-1.77,1.54-13.18,1.77-24.29,0-.77,0-1.54.07-2.3A121.09,121.09,0,0,0,799,634.6s-6.43-22.84-4.44-26.59c.84-1.61-.38-10.12-2.07-19.32a13.63,13.63,0,0,0,8.28,3c2.91,5.6,11.64,18.32,16.63,20.31,5.82,2.3,1.45-18.08-1.31-21.07a26.69,26.69,0,0,1-3.29-5.29l.23-.23c.07-.08.15-21.69-1.15-21.3s-2.91-3.22-2.91-3.22l-4.07-35.94-1.68-15h0c1.45,1.07,3.14,1.76,4.6,2.76,4,2.91,5.28,8,7.05,12.56,1.45,3.76,3.45,7.44,6.74,9.81s8.2,3,11.49.62c3.07-2.23,4-6.29,4.68-10,5.59,1.92,12.34-3.29,11.57-9-.15-1.38-.69-3,.08-4.22,1.45-2.45,6.13-1,7.66-3.44a2.89,2.89,0,0,0,.38-1.38C857.3,507.93,857.3,507.93,857.3,507.85Zm-74.41,19.77c-.08,1.38,1.76,12.41,3.3,21.07-1.23-5.44-3.76-11.26-8.74-15.25a4.91,4.91,0,0,0-.08-.76h.08s-.23-2.22-.23-5.29a60.7,60.7,0,0,1,.61-8.28h-.07c0-.23.07-.46.07-.69a24.73,24.73,0,0,1,1.84-6.66,25.07,25.07,0,0,1,1.38-2.38c.92,7.36,1.92,16.86,1.84,18.24ZM787,553.14c.69,3.75,1.15,6.44,1.15,6.44l4.06,28v.15c-2.22-11.8-5-24.22-5-24.22A46.37,46.37,0,0,0,787,553.14Z"/><path class="cls-3" d="M737.14,449.84c-.76-7-8.43-13.18-6.13-19.92,1.23-3.68,5.14-5.91,6.52-9.58.84-2.38.46-5.06.46-7.59s.61-5.44,2.75-6.82c4.6-3.07,10.5,3.22,15.87,1.92a32.8,32.8,0,0,0,3.75-1.61c6.29-2.53,13.34,2.07,16.86,7.74s4.83,12.56,7.89,18.62a14.6,14.6,0,0,0,4.68,5.9,7.2,7.2,0,0,0,7.2.84l8.81,19.54c2.3,5.06,4.91,10.5,10,12.72,2.22,1,4.75,1.23,7.12,2a15.3,15.3,0,0,1,10,11.58,29.49,29.49,0,0,0,.92,5.13c1.92,5.29,8.66,6.44,13.57,9.2a19.24,19.24,0,0,1,6.9,6.66c.76,1.31,1.45,3.07.61,4.37-1.46,2.38-6,1-7.44,3.45-.68,1.23-.23,2.76,0,4.14.69,5.67-5.82,10.88-11.18,9-.62,3.68-1.54,7.67-4.52,9.89-3.22,2.37-7.9,1.76-11.12-.61s-5.13-6.06-6.51-9.74c-1.69-4.52-3-9.65-6.82-12.56-1.38-1.08-3.07-1.69-4.44-2.76-3.07-2.38-4.6-6.21-5.68-10-1.37-4.68-2.52-9.51-4.59-13.87s-5.29-8.51-9.74-10.58c-4.21-1.92-9-1.76-13.33-3.29-7.43-2.61-13-8.89-20.31-11.81a31.64,31.64,0,0,1-6.66-3.75C738.68,455.66,737.68,454.28,737.14,449.84Z"/><g class="cls-4"><path d="M737.83,418.88a4.53,4.53,0,0,0,.39-.92c.84-2.37.46-5.06.46-7.59a13.43,13.43,0,0,1,.23-2.52,10.44,10.44,0,0,0-1,4.82A27.5,27.5,0,0,1,737.83,418.88Z"/><path d="M832.32,534.59c-3.22,2.38-7.89,1.77-11.11-.61s-5.14-6-6.52-9.73c-1.68-4.52-2.91-9.66-6.82-12.57-1.38-1.07-3.06-1.76-4.44-2.76-3.07-2.37-4.6-6.21-5.67-10-1.38-4.67-2.53-9.5-4.6-13.87s-5.29-8.51-9.73-10.58c-4.14-1.91-9-1.76-13.26-3.29-7.43-2.61-12.95-8.89-20.31-11.8a35.68,35.68,0,0,1-6.66-3.76c-3.61-2.53-4.6-3.9-5.14-8.35-.76-6.67-7.51-12.41-6.43-18.7a11.31,11.31,0,0,0-.46,1.08c-2.3,6.74,5.36,12.87,6.13,19.92.53,4.44,1.53,5.82,5.13,8.35a32,32,0,0,0,6.67,3.76c7.35,2.91,12.87,9.19,20.3,11.8,4.3,1.53,9.12,1.38,13.26,3.29,4.45,2,7.66,6.13,9.73,10.58s3.22,9.19,4.6,13.87c1.15,3.68,2.61,7.59,5.67,10,1.38,1.07,3.07,1.76,4.45,2.76,3.83,2.91,5.13,8,6.82,12.57,1.38,3.75,3.37,7.35,6.59,9.73s7.89,3,11.11.61c2.07-1.53,3.06-3.83,3.75-6.36A10.56,10.56,0,0,1,832.32,534.59Z"/><path d="M848.1,511.6a3.58,3.58,0,0,0-.38,1.77c1.76-1.69,5.67-.69,7-2.92a3,3,0,0,0,.39-1.83C853.32,510.38,849.41,509.38,848.1,511.6Z"/><path d="M836.84,524.71c-.15.76-.31,1.61-.46,2.37,4.67,1.46,10.12-2.3,10.88-7.05C845.35,523.71,840.75,526.16,836.84,524.71Z"/></g><path class="cls-5" d="M747.1,453.52s2.53,5.13-5,5.29S747,492.22,747,492.22l12.49,15.94L775,499.73l.92-23.22,1.15-14s-14.56-4.75-11.88-11S747.1,453.52,747.1,453.52Z"/><path class="cls-6" d="M792.32,589.46s9.19,9,19.92-3L804,577.74H793.54Z"/><path class="cls-7" d="M793.31,577.74,792,589.46s9.2,9,19.92-3"/><path class="cls-5" d="M808.79,579.35s3.68,9.73,6.36,12.64,6.9,23.22,1.31,20.92-16.33-19.39-17-22.38a110.35,110.35,0,0,1-.92-11.26Z"/><polygon class="cls-6" points="728.41 629.16 777.99 631.07 772.24 610.08 747.26 609.62 728.41 629.16"/><polygon class="cls-7" points="735.3 629.16 784.88 631.07 779.14 610.08 754.15 609.62 735.3 629.16"/><path class="cls-5" d="M744.65,663.72c-1.15,2.14-.69,9.73-.23,15.32.31,3.53.69,6.29.69,6.29s-18.54,5.74-21.3.76a14.88,14.88,0,0,1-1.15-6.05c-.38-7.66,1.15-18.7,1.15-18.7s-.77-17-1.15-18.62c-.15-.69-.38-2.76-.61-5.06-.31-3.37-.69-7.2-.69-7.2l25.28-13.41s0,2.53-.07,6.36C746.49,635.52,746.11,661,744.65,663.72Z"/><path class="cls-7" d="M745.19,685.33s-18.55,5.74-21.3.76a14.71,14.71,0,0,1-1.15-6.05c3.83-.61,15.48-2.22,21.84-1C744.81,682.64,745.19,685.33,745.19,685.33Z"/><path class="cls-3" d="M745.8,781.88h-.3c-2.23.08-15,0-15,0-.15-.23-.38-.38-.53-.61a10.47,10.47,0,0,1-1.69-10.12c2.3-6.28,2.53-17.77,2.53-17.77s.92-2.92.15-4.6a8.24,8.24,0,0,1-.23-4.22,12.6,12.6,0,0,0-.76-2.91c-.62-1.53.15-4.37.15-4.37a31.86,31.86,0,0,0-1.3-8c-1.15-3.3-9.58-42.76-7.51-47.51,0,0,17.85-3.07,24.67-.77l-.92,30.65s-3.22,9.2-.53,11.65.15,10,.15,10-.38,1.38,1.91,6.13,0,6.9,0,6.9v9s-1.76,6.13.23,11.11S746.72,781.73,745.8,781.88Z"/><path class="cls-5" d="M780.9,663.72c-1.15,2.14-.69,9.73-.23,15.32.31,3.53.69,6.29.69,6.29s-18.55,5.74-21.3.76a14.71,14.71,0,0,1-1.15-6.05c-.39-7.66,1.15-18.7,1.15-18.7s-.77-17-1.15-18.62c-.23-.92-.54-9.43-.85-17.09-.23-6.51-.46-12.49-.46-12.49l25.29,3.91s0,11.11-.3,22.53C782.36,650.61,781.82,662,780.9,663.72Z"/><path class="cls-7" d="M781.36,685.33s-18.55,5.74-21.3.76a14.71,14.71,0,0,1-1.15-6.05c3.83-.61,15.48-2.22,21.84-1C781.05,682.64,781.36,685.33,781.36,685.33Z"/><path class="cls-3" d="M782.05,781.88h-.31c-2.22.08-14.94,0-14.94,0-.15-.23-.38-.38-.54-.61a10.46,10.46,0,0,1-1.68-10.12c2.3-6.28,2.53-17.77,2.53-17.77s.92-2.92.15-4.6a8.12,8.12,0,0,1-.23-4.22,12.13,12.13,0,0,0-.77-2.91c-.61-1.53.16-4.37.16-4.37a31.43,31.43,0,0,0-1.31-8c-1.15-3.3-9.58-42.76-7.51-47.51,0,0,17.86-3.07,24.68-.77l-.92,30.65s-3.22,9.2-.54,11.65.16,10,.16,10-.39,1.38,1.91,6.13,0,6.9,0,6.9v9s-1.76,6.13.23,11.11S782.89,781.73,782.05,781.88Z"/><circle class="cls-7" cx="757.07" cy="441.56" r="18.01"/><circle class="cls-5" cx="757.07" cy="440.8" r="18.01"/><path class="cls-7" d="M721.43,630.46l25.29-13.41s0,2.53-.08,6.36c-3.67,2.22-9.27,5.52-14.63,8.66-2.91,1.68-5.75,3.37-8.2,4.75a12.15,12.15,0,0,1-1.76.77C721.74,634.21,721.43,630.46,721.43,630.46Z"/><path class="cls-7" d="M782.89,617s0,11.11-.31,22.53h-.07a46.63,46.63,0,0,1-5.67-.15c-3.3-.39-6-1.23-6.9-3-1.91-3.37-7.28-7.66-11.88-10.88-.23-6.52-.46-12.49-.46-12.49Z"/><path class="cls-6" d="M778.22,519.57a75.46,75.46,0,0,0-.39,15c11.65,9.58,9.43,29.74,9.43,29.74s9,40.84,7,44.6,4.37,26.43,4.37,26.43a114.36,114.36,0,0,1-16.17,1.84,46.63,46.63,0,0,1-5.67-.15c-3.3-.38-6-1.23-6.9-3-3.6-6.28-19-15.56-19-15.56s-9.81,5.91-18.93,11.19c-2.91,1.69-5.75,3.37-8.2,4.75a14.36,14.36,0,0,1-6.36,1.77c-10.88.76-25.29-6-23-8.43,2.83-2.92,16.7-54.56,16.7-54.56s7.05-32,13.19-36.4a7,7,0,0,0,2.29-3.22c2.07-5.83-1.38-15.18-1.38-15.18s-19.77-24.36-18.92-25.82.92-9,.92-9,2.45-11.87,3.83-17.62,11.49-7.13,14.4-6.67,9.58,2.3,12.42,0,7.51.92,7.51.92l11.65,3.22,10.5-6.13s10.49.54,11.34,1.91,14.71,4.07,14.71,4.07c7,4.75,6.74,27.2,6.74,27.2s-16.86,14.71-20.3,22.22A27.89,27.89,0,0,0,778.22,519.57Z"/><path class="cls-6" d="M796.53,487.62l3.83,3.06,4,35.64,4,35.78s1.54,3.61,2.84,3.22,1.15,21.23,1.15,21.23-14.64-9-19.93,3l-4.06-28.89s-5.21-29.51-5.13-31.8-2.68-27.21-2.68-27.21Z"/><path class="cls-6" d="M709.17,489.3l-2.83,3.45s.23,14.79-1.92,18.39,6,24.53,9,23.22,10-33.94,10-34.33S709.17,489.3,709.17,489.3Z"/><path class="cls-6" d="M708.87,510.38s-9,9-8.28,13.41,9.2,18,21.46,10.65C722.05,534.44,733.39,513.06,708.87,510.38Z"/><path class="cls-7" d="M745.5,782c-2.23.08-15,0-15,0-.15-.23-.38-.38-.53-.61C733.31,780.2,740.28,778.59,745.5,782Z"/><path class="cls-7" d="M781.74,782c-2.22.08-14.94,0-14.94,0-.15-.23-.38-.38-.54-.61C769.56,780.2,776.53,778.59,781.74,782Z"/><path class="cls-7" d="M732.93,557.28c-1.92,18.77-1.3,55.94-.92,72.49-2.91,1.69-5.75,3.37-8.2,4.75a14.35,14.35,0,0,1-6.36,1.76C716.61,631.3,727.87,580,732.93,557.28Z"/><path class="cls-7" d="M735.3,546.62c-.07.31-1,4.37-2.37,10.66C733.46,551.91,734.23,548.08,735.3,546.62Z"/><path class="cls-7" d="M766.42,544.63s10.88,68.2-21.31,76.63C745.11,621.26,767.41,617.89,766.42,544.63Z"/><path class="cls-7" d="M782.51,637.28a46.63,46.63,0,0,1-5.67-.15l-8.66-93.26C773.7,547.47,780.36,613.6,782.51,637.28Z"/><path class="cls-7" d="M743.66,430.15a4.06,4.06,0,0,1,1.68.15,6.3,6.3,0,0,1,2.15,1.61,7.88,7.88,0,0,0,7.28,1.45,11.29,11.29,0,0,1,2.76-.76,4.21,4.21,0,0,1,3.44,2.3c.69,1.22,1.15,2.68,1.77,4a5.11,5.11,0,0,0,3.14,2.91,4.54,4.54,0,0,1,2,.46,2.52,2.52,0,0,1,.84,1.15c1.23,2.61,2.15,5.67,4.68,6.9a6.82,6.82,0,0,0,3,.69,6,6,0,0,0,3.06-.54,6.16,6.16,0,0,0,2.23-2.22c1.6-2.61,1.76-5.9,1.37-9a24.92,24.92,0,0,0-4-10.8,22.42,22.42,0,0,0-20.54-9.5,23.66,23.66,0,0,0-4.06.76c-4.9,1.31-9.65,3.76-12.64,7.82a28.28,28.28,0,0,1-2.38,2.91C740.9,430.3,742.28,430.22,743.66,430.15Z"/><path class="cls-3" d="M743.66,429.38a4.06,4.06,0,0,1,1.68.15,6.43,6.43,0,0,1,2.15,1.61,7.88,7.88,0,0,0,7.28,1.46,10.88,10.88,0,0,1,2.76-.77,4.21,4.21,0,0,1,3.44,2.3c.69,1.23,1.15,2.68,1.77,4a5.13,5.13,0,0,0,3.14,2.92,4.4,4.4,0,0,1,2,.46,2.47,2.47,0,0,1,.84,1.15c1.23,2.6,2.15,5.67,4.68,6.89a6.82,6.82,0,0,0,3,.69,6,6,0,0,0,3.06-.53,6.27,6.27,0,0,0,2.23-2.23c1.6-2.6,1.76-5.9,1.37-9a25,25,0,0,0-4-10.81,22.44,22.44,0,0,0-20.54-9.5,22.75,22.75,0,0,0-4.06.77c-4.9,1.3-9.65,3.75-12.64,7.81a28.39,28.39,0,0,1-2.38,2.92C740.9,429.53,742.28,429.46,743.66,429.38Z"/><path class="cls-7" d="M724.12,472.29s.91,7.13-2.15,9S724.12,472.29,724.12,472.29Z"/><path class="cls-7" d="M789.1,527.77s7.28-10.73,8.27-7.66S789.1,527.77,789.1,527.77Z"/><path class="cls-7" d="M789.64,531.3s7.2-8.81,7.89-5.37S789.64,531.3,789.64,531.3Z"/><path class="cls-7" d="M768.48,520.8a11.63,11.63,0,0,1-7.2-2.38h-.61a11.88,11.88,0,0,1-16.09-.3h-.85a12,12,0,0,1-15.55-.31l-3-.08s3.52,9.35,1.38,15.18l51.19.92a69.9,69.9,0,0,1,.38-15v-.08l-2.84-.08A10.74,10.74,0,0,1,768.48,520.8Z"/><path class="cls-7" d="M768.48,522.33a11.62,11.62,0,0,1-7.2-2.37h-.61a11.54,11.54,0,0,1-7.89,3,11.4,11.4,0,0,1-8.2-3.3h-.85a12,12,0,0,1-15.55-.31l-3-.07s3.52,9.35,1.38,15.17l51.19.92a69.9,69.9,0,0,1,.38-15v-.08l-2.84-.07A10.79,10.79,0,0,1,768.48,522.33Z"/><path class="cls-3" d="M768.48,521.57a11.63,11.63,0,0,1-7.2-2.38h-.61a11.54,11.54,0,0,1-7.89,3,11.36,11.36,0,0,1-8.2-3.3h-.85a12,12,0,0,1-15.55-.3l-3-.08s3.52,9.35,1.38,15.17l51.19.92a69.9,69.9,0,0,1,.38-15v-.07l-2.84-.08A10.8,10.8,0,0,1,768.48,521.57Z"/><path class="cls-7" d="M766.26,470.45s10.81.69,10.88,2.23S766.26,470.45,766.26,470.45Z"/><path class="cls-7" d="M740.05,463.94s-10.8.69-10.88,2.22S740.05,463.94,740.05,463.94Z"/><path class="cls-7" d="M781.28,495.28c-.07-.08-.23-.15-.3-.23,2.75,2.45,2.29,7.89-1.08,12.42s-8.5,6.36-11.65,4.29a1.46,1.46,0,0,0,.31.23c3.07,2.37,8.43.53,12-4.14S784.35,497.66,781.28,495.28Z"/><path class="cls-7" d="M722.05,506.85c-2.76-4.9-2.38-10.34.69-12.41-.16.08-.23.08-.39.15-3.37,1.92-3.83,7.51-1,12.65s7.89,7.66,11.26,5.82c.08-.08.23-.15.31-.23C729.56,514.36,724.73,511.83,722.05,506.85Z"/><path class="cls-7" d="M725.65,465.4h0l-1,1.53-2.53-1.38,1.31-2.07A6,6,0,0,1,725.65,465.4Z"/><path class="cls-5" d="M709.63,522.1s2.22-10.57-.76-13.94-2.07-20.92,2.52-20.54,11.5,14.33,10.35,17.24-5.52,18-5.52,18Z"/><path class="cls-7" d="M781.74,445.93a5.2,5.2,0,0,1-5.29,2.76,6.81,6.81,0,0,1-3-.69c-2.53-1.3-3.53-4.29-4.68-6.9a2.51,2.51,0,0,0-.76-1.22,4.48,4.48,0,0,0-2-.46,5,5,0,0,1-3.14-2.91c-.69-1.38-1.07-2.76-1.76-4a4.08,4.08,0,0,0-3.45-2.3,11.31,11.31,0,0,0-2.76.77,7.42,7.42,0,0,1-7.28-1.46,7.31,7.31,0,0,0-2.14-1.61,4.23,4.23,0,0,0-1.69-.15c-.92,0-1.76.08-2.61.15-.46.54-.92,1.15-1.38,1.61,1.38-.07,2.69-.23,4.07-.23a4.06,4.06,0,0,1,1.68.16,6.4,6.4,0,0,1,2.15,1.6,7.86,7.86,0,0,0,7.28,1.46,8.3,8.3,0,0,1,2.76-.77,4.23,4.23,0,0,1,3.44,2.3c.69,1.23,1.15,2.69,1.77,4a5.11,5.11,0,0,0,3.14,2.91,5.79,5.79,0,0,1,2,.46,2.52,2.52,0,0,1,.84,1.15c1.23,2.6,2.15,5.67,4.68,6.9a6.82,6.82,0,0,0,3,.69,6.11,6.11,0,0,0,3.06-.54,6.24,6.24,0,0,0,2.23-2.22,12.75,12.75,0,0,0,1.53-7.13A12.9,12.9,0,0,1,781.74,445.93Z"/><ellipse class="cls-6" cx="713" cy="525.78" rx="6.9" ry="4.67"/><circle class="cls-8" cx="488.24" cy="549.61" r="236.41"/><path class="cls-9" d="M612.31,668.39c0,37.32-58.7,3.22-121.54,3.22S364.26,704.33,364.26,667c0-21.3,20.3-50.88,49.35-72.34h0c21.91-16.17,48.81-27.81,75.86-27.81,27.82,0,55,12.56,76.79,29.8C593.61,618.35,612.31,647.55,612.31,668.39Z"/><path class="cls-10" d="M566.18,596.59c-33.41-5.06-93.87-11.19-152.65-2,21.92-16.17,48.81-27.82,75.86-27.82C517.21,566.78,544.49,579.35,566.18,596.59Z"/><path class="cls-11" d="M364.18,382.71S293,428.23,293.53,499.42,364.18,382.71,364.18,382.71Z"/><path class="cls-8" d="M724.58,254.12s-64.53-3.9-56.94,41.31c0,0-1.53,8,5.75,11.65,0,0,.15-3.38,6.59-2.23a26.75,26.75,0,0,0,7,.31,14.79,14.79,0,0,0,8.58-3.53h0s18.16-7.51,25.21-37.16c0,0,5.21-6.44,5-8.12L714.92,261s3.68,7.89.77,14.41c0,0-.39-14.1-2.46-13.8-.38.08-5.67,2.76-5.67,2.76s6.36,13.72,1.54,23.6c0,0,1.83-16.85-3.61-22.6l-7.66,4.44s7.51,14.1,2.38,25.67c0,0,1.3-17.7-4-24.59l-7,5.44s7,13.94,2.76,23.52c0,0-.54-20.61-4.22-22.14,0,0-6,5.36-7,7.58,0,0,4.83,10.12,1.84,15.41,0,0-1.84-13.72-3.3-13.8,0,0-6.05,9.12-6.66,15.33,0,0,.23-9.27,5.21-16.17,0,0-5.83,1-9.28,4.83,0,0,.92-6.44,10.73-7,0,0,5-6.89,6.36-7.28,0,0-9.81-.84-15.71,1.84,0,0,5.21-6.05,17.48-3.29l6.89-5.6s-12.87-1.76-18.31.16c0,0,6.28-5.37,20.15-1.46l7.51-4.44s-11-2.38-17.47-1.54c0,0,6.9-3.68,19.69.31l5.37-2.38s-8.05-1.61-10.42-1.84-2.46-.91-2.46-.91a27.42,27.42,0,0,1,15.1,1.76C713.39,259.1,724.73,254.89,724.58,254.12Z"/><path class="cls-8" d="M658.37,234.05s-29.12-1.77-25.75,18.69a4.9,4.9,0,0,0,2.6,5.21s.08-1.53,3-1a14.62,14.62,0,0,0,3.14.15,6.76,6.76,0,0,0,3.91-1.61h0s8.2-3.37,11.34-16.78c0,0,2.38-2.91,2.3-3.68l-4.9,2.07s1.68,3.53.38,6.51c0,0-.15-6.36-1.07-6.2a26.26,26.26,0,0,0-2.53,1.22s2.91,6.21.69,10.66c0,0,.84-7.59-1.61-10.2l-3.45,2s3.37,6.36,1.07,11.57c0,0,.62-8-1.83-11.11L642.5,244s3.15,6.28,1.23,10.57c0,0-.23-9.27-1.92-10,0,0-2.76,2.46-3.14,3.45,0,0,2.15,4.6.84,7,0,0-.84-6.21-1.53-6.21,0,0-2.76,4.06-3,6.9a15,15,0,0,1,2.38-7.36,8.52,8.52,0,0,0-4.22,2.15s.39-2.92,4.83-3.15c0,0,2.3-3.14,2.84-3.29,0,0-4.45-.39-7.13.84,0,0,2.38-2.76,7.89-1.53l3.07-2.53s-5.83-.77-8.28.08c0,0,2.84-2.46,9.12-.62l3.37-2s-5-1.07-7.89-.69c0,0,3.14-1.68,8.89.15l2.45-1.07s-3.6-.69-4.67-.84-1.15-.38-1.15-.38a12.15,12.15,0,0,1,6.82.76C653.31,236.27,658.44,234.35,658.37,234.05Z"/><ellipse class="cls-1" cx="912.86" cy="757.05" rx="20.61" ry="3.45"/><ellipse class="cls-1" cx="126.39" cy="815.06" rx="20.61" ry="3.45"/><ellipse class="cls-1" cx="246.17" cy="819.43" rx="20.61" ry="3.45"/><ellipse class="cls-8" cx="867.72" cy="794.37" rx="30.81" ry="5.21"/><path class="cls-8" d="M880.44,785.87a8.68,8.68,0,0,0,2.91-4.45,4,4,0,0,0-2.06-4.52c-1.92-.69-3.91.61-5.44,1.92s-3.3,2.83-5.29,2.53a7.94,7.94,0,0,0,2.45-7.51,3.15,3.15,0,0,0-.69-1.54c-1.07-1.15-2.91-.61-4.21.23-4,2.84-5.14,8.2-5.14,13.11a25.38,25.38,0,0,1-.08-5.37c0-1.76-.53-3.83-2-4.75a5.42,5.42,0,0,0-3.06-.69c-1.77-.07-3.76.08-5,1.38-1.54,1.61-1.15,4.37.23,6.13a19.8,19.8,0,0,0,5.21,4.14A11.54,11.54,0,0,1,862,790c.08.23.23.39.31.62h11.27A30.25,30.25,0,0,0,880.44,785.87Z"/><path class="cls-8" d="M136,721.65s4.22,5.52-1.91,13.79-11.27,15.33-9.2,20.54c0,0,9.27-15.4,16.86-15.63S144.32,730.92,136,721.65Z"/><path class="cls-7" d="M136,721.65a5.38,5.38,0,0,1,.84,1.76c7.36,8.66,11.27,16.71,4.22,16.94-6.59.23-14.56,12-16.4,14.94l.23.69s9.27-15.4,16.86-15.63S144.32,730.92,136,721.65Z"/><path class="cls-12" d="M143.86,728.62c0,1.92-.23,3.53-.46,3.53s-.46-1.53-.46-3.53.31-1,.54-1S143.86,726.71,143.86,728.62Z"/><path class="cls-12" d="M146.47,730.92c-1.69.92-3.14,1.46-3.3,1.23s1.15-1.15,2.84-2.07,1-.23,1.15,0S148.23,730,146.47,730.92Z"/><path class="cls-8" d="M113.75,721.65s-4.22,5.52,1.91,13.79,11.27,15.33,9.2,20.54c0,0-9.27-15.4-16.86-15.63S105.47,730.92,113.75,721.65Z"/><path class="cls-7" d="M113.75,721.65a4.71,4.71,0,0,0-.84,1.76c-7.36,8.66-11.35,16.71-4.22,16.94,6.59.23,14.56,12,16.4,14.94l-.23.69s-9.27-15.4-16.86-15.63S105.47,730.92,113.75,721.65Z"/><path class="cls-12" d="M105.93,728.62c0,1.92.23,3.53.46,3.53s.46-1.53.46-3.53-.23-1-.53-1S105.93,726.71,105.93,728.62Z"/><path class="cls-12" d="M103.25,730.92c1.69.92,3.22,1.46,3.3,1.23s-1.15-1.15-2.84-2.07-1-.23-1.15,0S101.56,730,103.25,730.92Z"/><path class="cls-13" d="M107.31,755.21s11.8-.38,15.33-2.91,18.08-5.52,19-1.53S159.34,770.92,146,771s-30.88-2.07-34.41-4.21S107.31,755.21,107.31,755.21Z"/><path class="cls-14" d="M146.24,769.7c-13.26.07-30.88-2.07-34.41-4.22-2.68-1.61-3.75-7.51-4.14-10.27h-.38s.77,9.51,4.29,11.65,21.15,4.37,34.41,4.22c3.83,0,5.13-1.38,5.06-3.45C150.53,768.93,149.08,769.7,146.24,769.7Z"/><path class="cls-9" d="M404.18,518.58c4.52-.23,25.67-1.84,39.08-9.5a14.41,14.41,0,0,1,7.13-2.07c4.29-.16,9.19,1.68,6.05,11.64-5.13,16.33-34.71,34.72-53.1,33.72-17.7-1-38.7-8.12-52.49-33.18a15.53,15.53,0,0,1-1.92-7.89c.15-5.06,2-11.42,11.49-4.29,12.8,9.58,37.17,11.34,42.07,11.64A13.65,13.65,0,0,0,404.18,518.58Z"/><path class="cls-9" d="M574.3,518.58c4.52-.23,25.67-1.84,39.08-9.5a14.41,14.41,0,0,1,7.13-2.07c4.29-.16,9.2,1.68,6,11.64-5.13,16.33-34.71,34.72-53.1,33.72-17.7-1-38.7-8.12-52.49-33.18a15.53,15.53,0,0,1-1.92-7.89c.15-5.06,2-11.42,11.5-4.29,12.79,9.58,37.16,11.34,42.07,11.64A13.49,13.49,0,0,0,574.3,518.58Z"/></svg>