<svg id="Layer_1" data-name="Layer 1" xmlns="http://www.w3.org/2000/svg" viewBox="0 0 1024 1024"><defs><style>.cls-1{fill:#3f3d56;}.cls-2{opacity:0.2;isolation:isolate;}.cls-3{fill:#6c63ff;}.cls-4{fill:#2f2e41;}.cls-5{fill:#72563f;}.cls-6{fill:#575a89;}</style></defs><title>icons</title><path class="cls-1" d="M668.12,297.22H664.2V190a62,62,0,0,0-62-62H375.08a62,62,0,0,0-62,62h0v588a62,62,0,0,0,62,62H602.17a62,62,0,0,0,62-62h0V373.52h3.92Z"/><rect class="cls-1" x="149.33" y="810.87" width="718" height="2"/><path class="cls-2" d="M651,190.47V777.64A46.28,46.28,0,0,1,604.75,824H376.49a46.29,46.29,0,0,1-46.33-46.26V190.47a46.3,46.3,0,0,1,46.27-46.33h27.74a22,22,0,0,0,20.38,30.32h130.1A22,22,0,0,0,575,144.14h29.64A46.29,46.29,0,0,1,651,190.39v.08Z"/><path class="cls-1" d="M220.65,812.77l-1.08-.41c-.23-.09-23.71-9.08-34.7-29.47s-5.61-44.95-5.56-45.19l.26-1.12,1.07.4c.23.09,23.71,9.08,34.7,29.48s5.61,44.94,5.56,45.19Zm-34-30.83c9.3,17.24,27.84,26.08,32.54,28.1.9-5,3.7-25.41-5.59-42.63s-27.84-26.08-32.54-28.1C180.14,744.35,177.34,764.72,186.63,781.94Z"/><path class="cls-3" d="M193.27,775.74c19.76,11.88,27.37,35.5,27.37,35.5s-24.42,4.34-44.19-7.55-27.37-35.5-27.37-35.5S173.51,763.85,193.27,775.74Z"/><path class="cls-1" d="M387.73,144.14V824H376.49a45.21,45.21,0,0,1-8.76-.83V145a46.84,46.84,0,0,1,8.76-.83Z"/><rect class="cls-1" x="475.73" y="174.46" width="20" height="649.51"/><path class="cls-1" d="M620.73,147V821.11A46.09,46.09,0,0,1,604.67,824h-3.94V144.14h3.94A46.32,46.32,0,0,1,620.73,147Z"/><rect class="cls-1" x="330.16" y="257.34" width="320.84" height="20"/><rect class="cls-1" x="330.16" y="484.34" width="320.84" height="20"/><rect class="cls-1" x="479.73" y="596.34" width="161" height="20"/><rect class="cls-1" x="475.73" y="342.34" width="175.27" height="20"/><polygon class="cls-1" points="490.18 276 487.86 277.34 475.73 284.34 387.73 335.15 367.73 346.7 330.16 368.39 330.16 345.29 367.73 323.6 387.73 312.06 447.86 277.34 475.73 261.25 480.18 258.68 490.18 276"/><rect class="cls-1" x="330.16" y="703.34" width="320.84" height="20"/><path class="cls-3" d="M720.73,343.34c0,63.52-115,205-115,205s-115-141.48-115-205a115,115,0,0,1,230,0Z"/><circle class="cls-2" cx="605.73" cy="338.34" r="68"/><circle class="cls-3" cx="603.5" cy="339.85" r="25.33"/><path class="cls-3" d="M643.05,413.34a38,38,0,1,0-74.63,0Z"/><path class="cls-4" d="M725.57,250.79s-18.07-6.46-29.68,19.35-29.68,54.21-29.68,54.21l10.32,2.58s2.58-18.07,9-20.65L683,329.51s77.44,27.1,112.28-2.58l-1.29-9s5.16,1.29,5.16,9l3.88-3.87s-3.88-7.75-15.49-18.07c-7.63-6.78-10.25-19.67-11.15-27.73A33.48,33.48,0,0,0,768.65,259C760.93,250,746.87,240.53,725.57,250.79Z"/><path class="cls-5" d="M835.23,396.84s34,29,39,46-19,19-19,19l-52,5s-1,24-10,27-1.83-39.68-1.83-39.68l50.83-14.32-23-24Z"/><path class="cls-5" d="M676.23,426.84l-4,53-22,90s-20,41-3,42,16-39,16-39l32-85,3-58Z"/><polygon class="cls-5" points="694.23 810.84 694.23 849.84 718.23 843.84 711.23 807.84 694.23 810.84"/><polygon class="cls-5" points="822.23 810.84 822.23 849.84 846.23 843.84 839.23 807.84 822.23 810.84"/><circle class="cls-5" cx="732.23" cy="300.84" r="33"/><path class="cls-5" d="M717.23,316.84s12,43-7,54,48,19,66-14c0,0-32-11-23-40Z"/><path class="cls-6" d="M694.23,375.84l-6-2s-12,5-12,14-2,45-2,45l27,3Z"/><path class="cls-4" d="M698.23,482.79s-33,42.05-33,93.05,8,236,8,236,30,14,48-3l16-210,63,217s30,6,44-4l-27-140s-1-166-31-178S698.23,482.79,698.23,482.79Z"/><path class="cls-4" d="M720.23,837.84s-26-14-28,5-3,31-3,31-3,23,25,18,18-19,18-19-10-16-10-20S720.23,837.84,720.23,837.84Z"/><path class="cls-4" d="M819.67,837.39s23.66-17.67,28.43.83,7.52,30.22,7.52,30.22,6.35,22.31-22.08,21.48-20.6-16.15-20.6-16.15,7.54-17.3,7-21.25S819.67,837.39,819.67,837.39Z"/><path class="cls-6" d="M790.23,361.84s13-7,26,8l26,30-20,22-38-23Z"/><path class="cls-4" d="M696.57,301.05c11.68-8.45,21.14-18.19,27.4-29.77,0,0,21.44,23.82,34.54,25s1.19-28.59,1.19-28.59l-23.82-5.95-22.63,2.38L695.38,276Z"/><path class="cls-6" d="M771.23,354.84s-14,22.13-56,11.57L691.4,373l-3.17.87s3,60,11,71,6,17,4,18-7-1-4,4,7,2,3,5-6,14-6,14l94,12s-3-39,5-59,10-28,10-28l-6-50Z"/><circle class="cls-3" cx="615.73" cy="600.34" r="31"/></svg>