<svg id="Layer_1" data-name="Layer 1" xmlns="http://www.w3.org/2000/svg" viewBox="0 0 1024 1024"><defs><style>.cls-1{fill:#3f3d56;}.cls-2{fill:#6c63ff;}.cls-3{opacity:0.1;}.cls-3,.cls-9{isolation:isolate;}.cls-4{fill:#2f2e41;}.cls-5{fill:#a0616a;}.cls-6{fill:#fff;}.cls-7{fill:#d0cde1;}.cls-8{fill:#b3b3b3;}.cls-9{opacity:0.2;}.cls-10{fill:#e6e6e6;}</style></defs><title>icons</title><path class="cls-1" d="M643.88,554.41C625.24,565.59,592,579.6,558.06,565.2l-21.94-9.31,44-49.29c-77.93-85.93-71.45-218.76,14.47-296.68s218.75-71.45,296.68,14.47,71.45,218.75-14.48,296.68A210,210,0,0,1,643.88,554.41ZM559.62,365.16a174.54,174.54,0,0,0,55.57,128.42L627.32,505l-27.67,31c14.41-2.92,27-10.72,33.33-15.25l8.74-6.22,9.39,5.17a176.47,176.47,0,0,0,84.71,21.66c97.16,0,176.2-79,176.2-176.2S833,189,735.82,189s-176.2,79-176.2,176.2Z"/><path class="cls-2" d="M542.54,365.16c0-106.75,86.53-193.28,193.28-193.28S929.1,258.41,929.1,365.16,842.57,558.44,735.82,558.44a192.4,192.4,0,0,1-92.93-23.77c-13.36,9.5-46,28.47-78.16,14.81L603.49,506A192.76,192.76,0,0,1,542.54,365.16Z"/><path class="cls-3" d="M896.18,365.58c0-101-77.46-183.87-176.2-192.52q8.44-.75,17.08-.76c106.75,0,193.28,86.53,193.28,193.28S843.81,558.86,737.06,558.86c-5.75,0-11.43-.27-17.06-.76C818.73,549.44,896.18,466.56,896.18,365.58Z"/><path class="cls-1" d="M290.42,822.92C174.11,823,79.79,728.73,79.73,612.43s94.19-210.64,210.49-210.69,210.64,94.19,210.69,210.49A210.58,210.58,0,0,1,446.15,754l44,49.3-21.94,9.31C434.23,827,401,813,382.36,801.8A211,211,0,0,1,290.42,822.92Zm0-386.57c-97.16,0-176.2,79-176.2,176.2s79,176.2,176.2,176.2a176.25,176.25,0,0,0,84.71-21.66l9.39-5.16,8.74,6.21c6.36,4.53,18.92,12.33,33.33,15.25l-27.67-31L411.05,741a174.52,174.52,0,0,0,55.57-128.42c0-97.15-79-176.2-176.2-176.2Z"/><path class="cls-2" d="M483.7,612.55c0-106.74-86.53-193.28-193.28-193.28S97.14,505.81,97.14,612.55s86.53,193.29,193.28,193.29a192.52,192.52,0,0,0,92.93-23.78c13.36,9.51,46,28.47,78.16,14.81l-38.76-43.45A192.76,192.76,0,0,0,483.7,612.55Z"/><path class="cls-3" d="M131.3,611.58c0-101,77.46-183.88,176.2-192.53-5.63-.49-11.32-.76-17.08-.76-106.75,0-193.28,86.54-193.28,193.29s86.53,193.28,193.28,193.28c5.75,0,11.43-.27,17.06-.76C208.75,795.44,131.3,712.56,131.3,611.58Z"/><path class="cls-4" d="M781.2,303.76c-12.65-21.37-37.67-22.37-37.67-22.37s-24.38-3.12-40,29.43c-14.58,30.33-34.7,59.62-3.24,66.72L706,359.86l3.52,19a123.35,123.35,0,0,0,13.46.23c33.69-1.09,65.77.32,64.74-11.77C786.3,351.25,793.36,324.32,781.2,303.76Z"/><path class="cls-4" d="M698.47,490.89a49.89,49.89,0,0,1-1.61,6.94c-.79,2.23-2,4.28-2.73,6.53-2.31,7.17.89,15.16,6,20.69a33.75,33.75,0,0,0,16.46,9.77,66.61,66.61,0,0,0,14.15,1.49c13.14.45,26.63.85,39.08-3.38a67.56,67.56,0,0,0,11.36-5.16,8.55,8.55,0,0,0,3-2.32,8.16,8.16,0,0,0,1.06-4.76c0-5.57-1.16-11.12-.89-16.68.15-3.09.73-6.17.44-9.24a17,17,0,0,0-13-14.68c-3.54-.76-7.2-.35-10.8,0a271.83,271.83,0,0,1-28.1,1.25c-9.58-.06-19.11-1.52-28.65-1.67-2.82-.05-2.76.82-3.66,3.55A67.09,67.09,0,0,0,698.47,490.89Z"/><path class="cls-5" d="M725.68,353.27c-.46,2.42-1,4.92-2.41,6.9-1.67,2.28-4.39,3.58-6.18,5.76-2.7,3.29-2.86,7.91-2.87,12.16,0,3.92.07,8.1,2.26,11.35a19.75,19.75,0,0,0,5.68,5c8.19,5.52,17.05,11.14,26.92,11.33,4.1.07,8.48-1,11.18-4.07a17,17,0,0,0,2.7-4.82,64.05,64.05,0,0,0,4.54-19.52,23,23,0,0,0-.86-9.37c-1.2-3.35-3.63-6.1-5.23-9.27a20.62,20.62,0,0,1-2-12.21,1,1,0,0,0-1.13-1.32l-19.59-1.41a43.34,43.34,0,0,1-5.44-.62c-1-.22-3.84-1.72-4.85-1.32C726.55,342.59,726.06,351.27,725.68,353.27Z"/><path class="cls-3" d="M725.68,353.88c-.46,2.42-1,4.92-2.41,6.9-1.67,2.28-4.39,3.58-6.18,5.77-2.7,3.28-2.86,7.9-2.87,12.16,0,3.91.07,8.09,2.26,11.34a19.75,19.75,0,0,0,5.68,5c8.19,5.53,17.05,11.15,26.92,11.33,4.1.07,8.48-1,11.18-4.07a16.82,16.82,0,0,0,2.7-4.82A64,64,0,0,0,767.5,378a23,23,0,0,0-.86-9.37c-1.2-3.34-3.63-6.1-5.23-9.27a20.61,20.61,0,0,1-2-12.21,1,1,0,0,0-1.13-1.32L738.7,344.4a43.34,43.34,0,0,1-5.44-.62c-1-.21-3.84-1.71-4.85-1.32C726.55,343.2,726.06,351.88,725.68,353.88Z"/><circle class="cls-5" cx="744.41" cy="327.16" r="28.74"/><path class="cls-6" d="M729.71,391.52a17.48,17.48,0,0,0,5,4,16,16,0,0,0,6.3,1.2c5.18.14,10.8-.81,14.4-4.53,4.64-4.8,4.49-12.54,8.13-18.14a4.13,4.13,0,0,1,1.17-1.29,3.79,3.79,0,0,1,2-.45c4.6-.05,8.6,2.94,12.22,5.78a16.15,16.15,0,0,1,4.3,4.38,15,15,0,0,1,1.45,4.44c1.79,8.76,2.37,17.71,2.95,26.63.32,4.93.64,9.86.61,14.8-.07,16.26-3.85,32.26-7.61,48.08-.49,2-1.15,4.32-3,5.3a7.36,7.36,0,0,1-2.62.64c-10.76,1.26-21.55,2.53-32.4,2.69q-6.35.11-12.68-.3a6.79,6.79,0,0,1-2.14-.38,6,6,0,0,1-2.33-2c-5.86-7.39-6.21-17.61-6.17-27q.13-34.61,2.47-69.14c.13-1.9.16-4.21-1.21-5.71A70.45,70.45,0,0,0,729.71,391.52Z"/><path class="cls-6" d="M723.62,358.35c-1,1.75-8.12,6.11-9.51,7.57-7.71,8.14-21.8,7.83-28.86,16.54-2.48,3.07-3.77,6.92-4.72,10.75-1.34,5.42-2.06,11.32.19,16.43,2.16,4.92,6.72,8.31,9.81,12.7,3.39,4.82,4.92,10.67,6.38,16.38,1.08,4.22,2.17,8.54,1.75,12.88-.48,4.92-2.86,9.43-4.27,14.18s-1.65,10.39,1.61,14.12c2.39,2.74,6.14,3.83,9.72,4.44a110.93,110.93,0,0,0,13.86,1.2c4.1.19,8.62.22,11.76-2.41,2.49-2.07,3.57-5.43,3.71-8.66s-.53-6.44-.95-9.65-.61-6.68-.75-10q-.95-22.56-.26-45.15a38.69,38.69,0,0,0-.45-9.37c-.88-4-3.06-7.63-4.88-11.33A42.88,42.88,0,0,1,723,366.29C723.56,358.23,727.08,352.09,723.62,358.35Z"/><path class="cls-6" d="M764,359c1.48,1.52,6.5,2,8.38,3a29.91,29.91,0,0,0,5.51,1.9,71.58,71.58,0,0,1,19.36,8.89,11.71,11.71,0,0,1,3.24,2.79,13.06,13.06,0,0,1,1.79,5.06c.92,4.56,1.84,9.18,1.64,13.82-.22,4.94-1.71,9.72-3.18,14.43l-5.51,17.62c-4.11,13.14-8.25,26.42-9.41,40.15a94.09,94.09,0,0,0,.85,22.8,2.69,2.69,0,0,1-.28,2.21,2.15,2.15,0,0,1-1.35.62c-2.66.42-5.23-.94-7.64-2.14A84.46,84.46,0,0,0,754,482.48a54.4,54.4,0,0,0,7.25-14.94,92.4,92.4,0,0,0,2.19-10.27L766,442.45a146.11,146.11,0,0,0,2.2-16.4,20.63,20.63,0,0,0-.36-6.17,29.59,29.59,0,0,0-2.34-5.57c-4.22-8.79-6.21-18.81-4.54-28.42.72-4.2,2.14-8.41,1.55-12.64-.57-4.06,0-7.22-1-11.24C757.25,345.51,761.19,356.1,764,359Z"/><path class="cls-6" d="M685.18,396.36c-1.93,4-5.15,7.4-6.24,11.69a25.69,25.69,0,0,0-.55,6.12,29.07,29.07,0,0,0,.91,9.19c.61,1.9,1.61,3.64,2.32,5.5a19.92,19.92,0,0,1,1.31,8.15c-.19,3.85-1.5,7.59-1.6,11.44-.16,6.06,2.64,11.75,5.37,17.16a12.61,12.61,0,0,1,18.34-6,3.73,3.73,0,0,0,.83-2.74q.3-10.55.58-21.09c.3-10.87.58-21.89-1.92-32.47-1.13-4.78-2.89-9.54-6.11-13.24-1.69-2-7.45-7.1-10.23-4.91-1.25,1-1,3.66-1.16,5A21.3,21.3,0,0,1,685.18,396.36Z"/><path class="cls-6" d="M804.45,384.84a29,29,0,0,1,1,8.85q.06,9.1-.24,18.22a34.23,34.23,0,0,1-1.18,9.23c-.62,1.95-1.58,3.79-2.23,5.74-1.92,5.84-.87,12.17-.7,18.32a21.14,21.14,0,0,1-.51,5.93c-1,3.81-3.74,6.89-5.65,10.34-1.81,3.28-2.9,6.95-5.06,10S784,477,780.33,476c-2.75-.71-4.7-3.14-6.05-5.64a27.72,27.72,0,0,1-2.86-17.94c1.36-7.46,5.74-14.08,7.32-21.5,2.17-10.19-1.13-20.7-1-31.11a15.13,15.13,0,0,1,.66-4.82c.83-2.38,2.61-4.28,4.25-6.19a76.91,76.91,0,0,0,5.72-7.5c1.18-1.76,2.78-6.27,4.86-6.65C797.87,373.84,803.29,381.24,804.45,384.84Z"/><path class="cls-4" d="M661,486.36a28.33,28.33,0,0,0-7.89-.84,19.69,19.69,0,0,0-18.57,20.75,18.54,18.54,0,0,0,.29,2.46,33,33,0,0,0,3.13,8.55c2.09,4.24,4.6,8.48,8.47,11.2A33.12,33.12,0,0,0,653.9,532l20.4,7.68c3,1.14,6,2.27,9,3.31a176.73,176.73,0,0,0,47.18,9.39,51.41,51.41,0,0,0,14.65-.75,4.74,4.74,0,0,0,3-1.62,5.08,5.08,0,0,0,.67-2.21l1.26-8.79a7.41,7.41,0,0,0-.11-3.71c-.57-1.47-2-2.4-3.39-3.19-13.41-7.7-29.07-11.95-40.36-22.53-2.66-2.49-4.88-6.43-8.11-8.12-3.66-1.92-8-3-11.76-4.78C678.09,492.86,670,488.42,661,486.36Z"/><path class="cls-3" d="M681.36,498.21c7.21,2.26,37.65,17.91,42.87,23.37-.7.26-24.43-13-25.14-13.26A142.34,142.34,0,0,1,680,501.58c-1.24-.57-8-3.26-7.73-4.82C672.58,495,680.08,497.8,681.36,498.21Z"/><path class="cls-5" d="M771.32,557a1.7,1.7,0,0,0,1.14-.33,1.79,1.79,0,0,0,.36-1.32l0-12c-3.45-1.64-7.3-2.17-11.08-2.67l-17.64-2.36c.41,0-2.75,7.6-2.27,8.6.86,1.78,7.39,3.35,9.23,4.19C757.44,554,764.1,557.22,771.32,557Z"/><path class="cls-5" d="M716,543.31c-3.33.53-7,1-9.2,3.59-2.74,3.29-1.57,8.19-.27,12.26a4,4,0,0,0,4.53,3.33h.11c3,.19,6.27.34,8.92-1.15a41.58,41.58,0,0,0,3.47-2.58,22.41,22.41,0,0,1,6.37-2.91,65,65,0,0,1,12.79-2.64,19.19,19.19,0,0,0,5-.89,5.55,5.55,0,0,0,3.55-3.44c.62-2.18-.65-4.4-1.86-6.3a25.08,25.08,0,0,0-5.37-6.63c-3.28-2.56-4.91-.6-8.22,1A70,70,0,0,1,716,543.31Z"/><path class="cls-4" d="M707.28,546.31l-21.15-6.25a27.74,27.74,0,0,0-7.86-1.53,9.49,9.49,0,0,0-7.23,2.92c-1.64,1.93-2.11,4.56-2.52,7l-.87,5.34a26.58,26.58,0,0,0-.49,8.2,9,9,0,0,0,4.2,6.75c2.92,1.59,6.51.82,9.78.15a106.11,106.11,0,0,1,20-2.15c2.54,0,5.19,0,7.43-1.19a9.25,9.25,0,0,0,4.52-7.38C713.54,553.66,712,547.71,707.28,546.31Z"/><path class="cls-4" d="M779.63,540.86c2.74-.48,5.16-2,7.79-3,3.7-1.29,7.7-1.29,11.62-1.28a7.46,7.46,0,0,1,4.17.84c1.72,1.15,2.16,3.44,2.46,5.5l1.77,12.38a19.43,19.43,0,0,1,.14,7c-.52,2.29-2.08,4.51-4.36,5.1-2.76.72-5.47-1.05-8.08-2.21-6.53-2.9-14.12-2.16-20.92-4.33a4.69,4.69,0,0,1-3.13-2.23,5.18,5.18,0,0,1-.24-2.14c.11-4-.73-9.42.47-13.22C772.4,539.9,776.57,540.86,779.63,540.86Z"/><path class="cls-4" d="M824.38,481.37a37,37,0,0,1,12.93-.88c3.46.38,7,1.34,9.55,3.74,3.07,2.91,4.06,7.42,4.14,11.65a36.39,36.39,0,0,1-7.91,23.25,21,21,0,0,1-4.52,4.35,30.15,30.15,0,0,1-5.89,2.84l-45.69,18c-12,4.74-24.08,9.5-36.61,12.62a2.85,2.85,0,0,1-3.81-1.33l0-.06a94.16,94.16,0,0,1-10-18.32,1.24,1.24,0,0,1,.18-1.74,1,1,0,0,1,.37-.2l32.31-18.57a33,33,0,0,0,6.58-4.53,16.5,16.5,0,0,0,3.38-4.7c.67-1.4.73-4.71,1.58-5.74s3.71-1.09,5-1.49a43.93,43.93,0,0,0,5.47-2.07c7.23-3.23,13.67-7.93,20.6-11.72A53.22,53.22,0,0,1,824.38,481.37Z"/><path class="cls-3" d="M806.06,495.24c-5.55,4.17-12.74,8-18.24,12.28-1.88,1.46-33.19,19.06-33.63,21.4,5.13.87,37.83-22,42.51-24.29s8.83-5.5,12.94-8.7c1.05-.81,5.49-3.26,2.48-4.17C810.43,491.25,807.31,494.41,806.06,495.24Z"/><path class="cls-7" d="M767.86,359.36H719.12a7.46,7.46,0,0,0-7.46,7.47h0v2.73h-.53v6.11h.53V380h-.53v3.67h.53v45.11a7.46,7.46,0,0,0,7.46,7.47h48.74a7.46,7.46,0,0,0,7.46-7.47h0v-61.9A7.46,7.46,0,0,0,767.86,359.36Z"/><polygon class="cls-4" points="775.61 301.7 750.89 288.75 716.75 294.05 709.69 325.24 727.27 324.56 732.18 313.1 732.18 324.37 740.29 324.06 745 305.81 747.94 325.24 776.78 324.65 775.61 301.7"/><path class="cls-5" d="M691.65,477.33a12.6,12.6,0,0,0,4.61,4.59,9,9,0,0,0,7.93-.21,13.88,13.88,0,0,0,5.72-5.74c2.69-4.74,3.25-10.42,2.91-15.86s-1.5-10.8-2-16.22c-.37-3.95-.4-7.92-.43-11.88a3.87,3.87,0,0,1,.5-2.4,4.67,4.67,0,0,1,2.65-1.33c5.42-1.61,9-6.69,11.6-11.72,1.72-3.36,3.22-7,2.88-10.8s-3-7.55-6.79-7.93c-3.1-.32-6,1.65-8.19,3.81a35.17,35.17,0,0,0-10.29,20.56c-.49,3.82-.35,7.75-1.39,11.47-2.22,7.93-9.17,12.79-12.63,19.92C684.9,461.45,687,470.38,691.65,477.33Z"/><path class="cls-5" d="M793.93,447a15,15,0,0,1-8.41,8.08,11.56,11.56,0,0,1-7.3.44,8.09,8.09,0,0,1-5.35-4.78,13,13,0,0,1-.61-3.6c-.34-5.34-.21-10.85,1.73-15.85.75-1.92,1.76-3.75,2.35-5.73a29,29,0,0,0,.89-7l.64-14.59a9.59,9.59,0,0,0-.22-3.16c-.64-2.11-2.61-3.48-4.42-4.74-4.37-3-8.69-6.59-10.81-11.48a8,8,0,0,1-.75-4.75c.6-2.89,3.52-4.77,6.41-5.4a14.34,14.34,0,0,1,17.07,10.94c.05.21.09.41.12.61.29,1.65.29,3.33.45,5,.36,3.53,1.48,6.93,2.18,10.41,1.72,8.55.83,17.4,2.54,26C791.86,434.55,797.24,439.21,793.93,447Z"/><circle class="cls-2" cx="744.14" cy="386.07" r="6.11"/><polygon class="cls-5" points="145.67 641.3 136.59 632.48 118.34 638.14 120.1 659.26 157.6 657.52 146.08 641.86 145.67 641.3"/><circle class="cls-5" cx="125.8" cy="611.97" r="29.16"/><path class="cls-4" d="M306.81,678.73s35.82,61.56,44.35,70.8a154.19,154.19,0,0,0,12.93,12.89s-4,13.29-10.39,12.82a30.28,30.28,0,0,1-10.53-2.59s-2.84-7.39-7.81-10.63-45.57-43.18-44.62-55.94S306.81,678.73,306.81,678.73Z"/><path class="cls-4" d="M179.25,766.58s38.19,29.64,90.09,1.79l4.48-3.3s-7.55,17-8.25,21.59c-.81,5.34-20.47,36.61-23.68,38.11s-3.91,2.88-3.91,2.88l13.61,15,5-3.7S276.25,811.13,282,806s33.09-57.53,33.09-57.53,10.45-19.76-15.64-21.25-38.1,5.63-38.1,5.63L215,740.24Z"/><path class="cls-4" d="M364.54,759.51l19.32,13.37s24.64,7.72,9.46,12.86-55.19,7-56.1-.1,1.58-18.25,3.58-17.63S356.65,772.21,364.54,759.51Z"/><path class="cls-4" d="M258.33,834.33,261.91,854s10.17,19.44-2,13.41-37.36-29-33.64-33.75,11.91-10,12.74-8.45S246,837.22,258.33,834.33Z"/><path class="cls-6" d="M221.5,746.69s-26,30.31-41.73,22.95S99.52,677,106.89,661.23s9.83-12.41,9.83-12.41L150,651.9l-9.58-15.36s4.47-3.3,8.73,1.33,21.38,16.16,27.34,32.46S200,685.81,200,685.81Z"/><polygon class="cls-1" points="326.34 684.18 281.34 731.96 241.02 660.78 279.35 614.47 326.34 684.18"/><polygon class="cls-6" points="322.95 683.67 282.3 725.65 245.46 660.96 279.24 618.43 322.95 683.67"/><polygon class="cls-8" points="279.13 730.13 281.34 731.96 279.92 734.72 216.99 753.45 216.4 751.29 219.26 748.33 279.13 730.13"/><polygon class="cls-7" points="281.9 731.54 216.73 751.92 177 676.86 241.02 660.78 281.9 731.54"/><polygon class="cls-1" points="276.99 721.36 274.19 723.42 243.16 669.54 246.37 668.04 276.99 721.36"/><polygon class="cls-1" points="270.58 724.36 243.01 732.58 211.72 677.17 238.99 670.89 270.58 724.36"/><path class="cls-5" d="M192.91,683.25l5.71-1.61s31.83-3.6,32.3,6.4-36.57,5.36-36.57,5.36l-4.94-6.71Z"/><path class="cls-5" d="M220.83,728.21l7.95-3.26s24-10.75,17.1-17.75-28.1,5.16-28.1,5.16l-4.06,3.85Z"/><path class="cls-6" d="M213.75,712.74s12.94,12.89,10,15.92-51.2,42.85-63.17,30.11S90.31,682,113,676.55s28.67,7.35,28.67,7.35l30,51.23Z"/><polygon class="cls-6" points="175.02 673.58 196.27 680.78 195.92 696.12 173.45 693.7 175.02 673.58"/><polygon class="cls-9" points="194.17 720.68 171.28 734.08 145.12 693.86 170.37 726.99 194.17 720.68"/><circle class="cls-4" cx="113" cy="603.51" r="34.71" transform="translate(-495.01 689.05) rotate(-87.4)"/><polygon class="cls-2" points="300.56 687.21 276.25 651.66 286.56 638.9 311.81 675.48 300.56 687.21"/><polygon class="cls-10" points="299.87 701.51 262.87 647.71 264.7 645.51 301.52 699.43 299.87 701.51"/><polygon class="cls-10" points="295.11 706.74 258.1 652.95 259.93 650.74 296.76 704.66 295.11 706.74"/><polygon class="cls-10" points="291.04 710.59 254.04 656.8 255.87 654.59 292.69 708.51 291.04 710.59"/><path class="cls-4" d="M128.37,580.34h10.74a20.5,20.5,0,0,1,20.5,20.5H128.37v-20.5Z"/><path class="cls-1" d="M276.29,567.29l-2-.14c-.07,1-.13,2-.19,3.05l-8.74-.3,9.17,17.18,10.29-16.53-8.77-.29C276.16,569.27,276.22,568.28,276.29,567.29Z"/><path class="cls-1" d="M327.54,427.29l1.55,1.19c2.33-3.05,4.76-6.09,7.23-9.05l-1.5-1.25C332.33,421.16,329.88,424.22,327.54,427.29Z"/><path class="cls-1" d="M342.49,409.4l1.45,1.31c2.59-2.83,5.27-5.65,8-8.37L350.55,401C347.81,403.7,345.1,406.54,342.49,409.4Z"/><path class="cls-1" d="M359,392.89l1.32,1.44c2.83-2.61,5.76-5.17,8.69-7.64l-1.25-1.5C364.76,387.68,361.81,390.27,359,392.89Z"/><path class="cls-1" d="M314.21,446.45l1.65,1c2.06-3.25,4.21-6.49,6.41-9.65l-1.6-1.12C318.45,439.9,316.28,443.18,314.21,446.45Z"/><path class="cls-1" d="M376.8,377.9l1.19,1.54c3.05-2.34,6.19-4.64,9.33-6.84L386.2,371C383,373.22,379.87,375.54,376.8,377.9Z"/><path class="cls-1" d="M302.63,466.71l1.73.89c1.76-3.42,3.62-6.84,5.53-10.18l-1.69-1C306.27,459.81,304.4,463.26,302.63,466.71Z"/><path class="cls-1" d="M283.8,521.67l-1.89-.49c-1,3.74-1.86,7.56-2.66,11.35l1.91.41C282,529.18,282.84,525.38,283.8,521.67Z"/><path class="cls-1" d="M395.89,364.54l1,1.64c3.24-2.06,6.57-4.07,9.89-6l-1-1.69C402.5,360.43,399.15,362.46,395.89,364.54Z"/><path class="cls-1" d="M279,544.31,277.1,544c-.62,3.82-1.17,7.7-1.63,11.55l1.94.23C277.86,552,278.41,548.09,279,544.31Z"/><path class="cls-1" d="M292.88,487.93l1.81.74c1.45-3.56,3-7.14,4.6-10.64l-1.77-.82C295.9,480.74,294.34,484.34,292.88,487.93Z"/><path class="cls-1" d="M285.06,510l1.87.57c1.13-3.68,2.35-7.39,3.64-11l-1.84-.65C287.43,502.51,286.2,506.24,285.06,510Z"/><path class="cls-1" d="M528,325.62c3.83-.13,7.73-.18,11.58-.15l0-2c-3.88,0-7.81,0-11.66.15Z"/><path class="cls-1" d="M416.07,352.92l.89,1.73c3.41-1.77,6.9-3.48,10.38-5.09l-.82-1.77C423,349.41,419.5,351.14,416.07,352.92Z"/><path class="cls-1" d="M574.15,328.06c3.81.54,7.65,1.17,11.43,1.87l.36-1.92c-3.8-.71-7.68-1.34-11.51-1.89Z"/><path class="cls-1" d="M596.91,332.31c3.74.88,7.51,1.85,11.21,2.89l.53-1.88c-3.73-1.05-7.53-2-11.3-2.91Z"/><path class="cls-1" d="M619.19,338.58c3.65,1.2,7.32,2.5,10.91,3.87l.7-1.83c-3.63-1.37-7.32-2.68-11-3.9Z"/><path class="cls-1" d="M551.11,325.83c3.84.2,7.73.49,11.55.86l.18-1.95c-3.84-.37-7.76-.66-11.63-.86Z"/><path class="cls-1" d="M504.65,325.5l.23,1.94c3.81-.47,7.68-.86,11.52-1.16l-.15-1.95C512.38,324.63,508.48,325,504.65,325.5Z"/><path class="cls-1" d="M459.1,335.26l.58,1.87c3.67-1.14,7.41-2.21,11.13-3.18l-.5-1.89C466.57,333,462.8,334.12,459.1,335.26Z"/><path class="cls-1" d="M437.18,343.14l.74,1.8c3.55-1.45,7.18-2.85,10.78-4.14L448,339C444.41,340.26,440.76,341.67,437.18,343.14Z"/><path class="cls-1" d="M481.66,329.37l.41,1.91c3.75-.81,7.57-1.54,11.36-2.18l-.32-1.92C489.29,327.82,485.43,328.56,481.66,329.37Z"/><path class="cls-1" d="M659.23,354.52,648.32,338.4l-3.83,7.89-2.78-1.24-.78,1.8c.91.39,1.8.8,2.7,1.2l-3.82,7.86Z"/></svg>