<svg id="Layer_1" data-name="Layer 1" xmlns="http://www.w3.org/2000/svg" viewBox="0 0 1024 1024"><defs><style>.cls-1{fill:#6c63ff;}.cls-2{fill:#f2f2f2;}.cls-3{fill:#cfcce0;}.cls-4{fill:#996044;}.cls-5{fill:#2f2e41;}</style></defs><title>icons</title><circle class="cls-1" cx="154" cy="545.19" r="13"/><circle class="cls-1" cx="211" cy="652.19" r="13"/><circle class="cls-1" cx="167" cy="625.19" r="13"/><path class="cls-1" d="M687.29,869.19H466s-4.49-65.78,22.05-66.53,23.55,29.16,56.81-12,73.64-38.87,78.87-14.58-10.09,43.74,17.94,37.75S710.09,823.59,687.29,869.19Z"/><path class="cls-2" d="M572.92,869.21l-.75,0c1.74-43.31,10.81-71.14,18.12-86.86,7.93-17.07,15.57-24,15.64-24l.5.56c-.07.06-7.63,6.9-15.49,23.85C583.68,798.35,574.65,826.06,572.92,869.21Z"/><path class="cls-2" d="M653,869.3l-.71-.21c8.64-29.66,29-48.39,29.19-48.57l.5.55A115.28,115.28,0,0,0,653,869.3Z"/><path class="cls-2" d="M500.87,869.24l-.74-.1a81.47,81.47,0,0,0-7.32-47.59,65.62,65.62,0,0,0-11.56-16.86l.52-.54a66.42,66.42,0,0,1,11.71,17.07A82.27,82.27,0,0,1,500.87,869.24Z"/><path class="cls-3" d="M717.32,870.19H442.15l-.06-.93c-.16-2.32-3.67-57,14.05-76.53a19.44,19.44,0,0,1,14.19-6.81c11.55-.33,18.81,4,24.66,7.47,11,6.55,18.33,10.88,44.84-21.89,28.72-35.49,59.7-43.13,77.52-38.88,11.5,2.74,19.44,10.5,21.76,21.28,2.2,10.2,1.5,19.79.93,27.5-.6,8.24-1.07,14.75,2.31,17.71,2.83,2.46,8.47,2.68,17.76.7,18.89-4,45.24-.58,58.47,16.51,7.12,9.2,12.72,25.91-1,53.32Zm-273.29-2H716.08c10.22-20.72,10.54-38.22.92-50.65-12.14-15.67-37.6-19.8-56.48-15.77-10.08,2.15-16.1,1.79-19.48-1.16-4.14-3.6-3.63-10.56-3-19.36.55-7.58,1.24-17-.9-26.93s-9.54-17.2-20.27-19.76c-17.24-4.11-47.36,3.43-75.49,38.2-27.6,34.11-35.91,29.18-47.42,22.36-5.92-3.52-12.65-7.51-23.59-7.2a17.49,17.49,0,0,0-12.76,6.15C441.69,811.61,443.64,860.8,444,868.19Z"/><path class="cls-3" d="M351.52,656.57a26.93,26.93,0,0,1,0,7.34c-.07.55-.15,1.09-.25,1.63h0a43.52,43.52,0,0,1-6.81,16.07l-.35.48-.46-.36a44.82,44.82,0,0,1-9.52-10.44c-.22-.36-.45-.72-.67-1.1a28.6,28.6,0,0,1-3.83-10.3v0q-.09-.58-.15-1.17a29.41,29.41,0,0,1,.87-10.15c.1-.42.21-.82.33-1.23a44.76,44.76,0,0,1,6-12.49l.34-.48s.17.12.47.36a44.66,44.66,0,0,1,9.29,10.11c.23.34.45.69.67,1a30.69,30.69,0,0,1,3.43,7.75c.13.48.25,1,.35,1.46S351.44,656.05,351.52,656.57Z"/><path class="cls-3" d="M472.78,707.17a26.57,26.57,0,0,1,3.88,6.22c.24.51.45,1,.65,1.52h0a43.31,43.31,0,0,1,2.63,17.25c0,.38,0,.59,0,.59l-.58-.06a44.93,44.93,0,0,1-13.58-3.9l-1.15-.58a28.67,28.67,0,0,1-8.67-6.76l0,0c-.26-.3-.5-.6-.74-.91a29.49,29.49,0,0,1-4.59-9.11c-.13-.4-.25-.8-.36-1.21a45,45,0,0,1-1.48-13.77c0-.38,0-.58,0-.58s.21,0,.59.06a44.79,44.79,0,0,1,13.22,3.72l1.11.55a30.42,30.42,0,0,1,7,4.79c.36.34.72.69,1.07,1S472.44,706.77,472.78,707.17Z"/><path class="cls-4" d="M490.87,474.42l-5,83.64s-16.73,46.84,5,46.84,8.36-50.18,8.36-50.18l20.07-82Z"/><path class="cls-4" d="M653.13,464.38l5,83.65s16.73,46.84-5,46.84-8.36-50.19-8.36-50.19l-20.07-82Z"/><path class="cls-5" d="M552.76,819l3.35,41.82s-13.39,33.46,8.36,36.81l.65.09a17.27,17.27,0,0,0,19.34-20.12l-3.26-18.45s1.67-33.46-8.36-40.15S552.76,819,552.76,819Z"/><path class="cls-5" d="M584.55,782.23s-3.35,10-1.68,20.07,3.35,38.48,3.35,38.48,0,30.11,11.71,30.11c4.18,0,7.72-3.63,10.55-8.29a42.49,42.49,0,0,0,4.31-33.15l-6.5-23.8v-18.4Z"/><path class="cls-5" d="M522.65,476.09s-36.8,48.52-16.73,120.45,21.75,92,21.75,92l11.71,137.17s20.07,6.69,36.8-3.34l-5-132.16v-80.3l10,88.67v88.66s23.42,23.42,40.15,1.67l3.35-98.7s10-137.17,3.34-150.56-21.75-60.22-21.75-60.22Z"/><path class="cls-5" d="M556,250.38s-17-6.08-28,18.23-27.95,51-27.95,51l9.72,2.43s2.43-17,8.5-19.44l-2.43,21.87s72.92,25.52,105.73-2.43l-1.22-8.5s4.86,1.21,4.86,8.5l3.65-3.64s-3.65-7.29-14.58-17c-7.18-6.39-9.65-18.52-10.5-26.11a31.58,31.58,0,0,0-7.27-17.21C589.26,249.68,576,240.72,556,250.38Z"/><circle class="cls-4" cx="564.47" cy="298.77" r="31.78" transform="translate(172.3 802.84) rotate(-80.01)"/><path class="cls-4" d="M556.11,318.84l-10,40.15,30.11,87,23.42-92s-21.74-15.05-16.73-35.13Z"/><path class="cls-3" d="M638.08,548s-48.51,18.4-58.55-10-8.37-50.19-8.37-50.19-15,58.55-40.15,58.55S492.54,538,492.54,538s18.4-58.55,35.13-68.59l.23-.57c.94-2.34,4.25-11.62,1.93-19.79a16.88,16.88,0,0,0-2.16-4.73c-6.69-10-13.38-13.38-11.71-38.48L502.58,359l46.15-10.64,24.11,75.88,21.94-74.29,40,5.71s3.35,60.22-13.38,82A36,36,0,0,0,615.46,449c-2.91,9.24-2.22,19-.65,26.72h0a73.59,73.59,0,0,0,4.85,15.39Z"/><path class="cls-3" d="M624.7,357.32l10-1.67s4.18-.84,11.71,5c9.62,7.47,10,108.73,10,108.73l-31.78,1.67Z"/><path class="cls-3" d="M510.94,362.34,502.58,359s-3.35-1.67-5,8.37-10,113.75-10,113.75l35.13-1.67V404.16Z"/><path class="cls-5" d="M527.71,303.4s9.72-13.37,18.23-15.8S555.66,273,555.66,273s21.87,24.3,35.24,25.52,1.21-29.17,1.21-29.17l-24.3-6.08-23.09,2.44-18.23,12.15Z"/><circle class="cls-5" cx="573.67" cy="458.53" r="10.04"/><path class="cls-1" d="M746.23,316.1a108.32,108.32,0,1,1,38.66,51.56,35,35,0,1,1-38.66-51.56Z"/><circle class="cls-3" cx="807.56" cy="275.41" r="12.53"/><circle class="cls-3" cx="850.32" cy="275.41" r="12.53"/><circle class="cls-3" cx="893.08" cy="275.41" r="12.53"/><path class="cls-3" d="M735.52,363.32a37.6,37.6,0,0,1-.66-72.66,114.14,114.14,0,1,1,42,56A37.71,37.71,0,0,1,735.52,363.32ZM870.85,144.53A112.34,112.34,0,0,0,737.11,291l.37,1.05-1.07.26a35.6,35.6,0,1,0,39.27,52.4l.55-1,.9.64a112.34,112.34,0,1,0,93.72-199.87Z"/><path class="cls-3" d="M171.15,809.71c-.23-.37-5.64-9.41-7.52-28.17-1.72-17.21-.61-46.22,14.43-86.7,28.51-76.67-6.57-138.53-6.93-139.14l1.74-1c.09.16,9.14,15.93,14.48,41a179,179,0,0,1-7.41,99.8c-28.46,76.54-7.3,112.78-7.09,113.13Z"/><path class="cls-3" d="M160,552.19a14,14,0,1,1,14-14A14,14,0,0,1,160,552.19Zm0-26a12,12,0,1,0,12,12A12,12,0,0,0,160,526.19Z"/><circle class="cls-3" cx="201" cy="586.19" r="13"/><path class="cls-3" d="M173,632.19a14,14,0,1,1,14-14A14,14,0,0,1,173,632.19Zm0-26a12,12,0,1,0,12,12A12,12,0,0,0,173,606.19Z"/><path class="cls-3" d="M207,659.19a14,14,0,1,1,14-14A14,14,0,0,1,207,659.19Zm0-26a12,12,0,1,0,12,12A12,12,0,0,0,207,633.19Z"/><circle class="cls-1" cx="698" cy="751.19" r="13"/><path class="cls-3" d="M694,758.19a14,14,0,1,1,14-14A14,14,0,0,1,694,758.19Zm0-26a12,12,0,1,0,12,12A12,12,0,0,0,694,732.19Z"/><circle class="cls-1" cx="327" cy="824.19" r="13"/><path class="cls-3" d="M323,831.19a14,14,0,1,1,14-14A14,14,0,0,1,323,831.19Zm0-26a12,12,0,1,0,12,12A12,12,0,0,0,323,805.19Z"/><circle class="cls-3" cx="163" cy="687.19" r="13"/><path class="cls-3" d="M179,810.19s-13-32,26-56Z"/><path class="cls-3" d="M163,809.61s-5.91-34-51.71-33.73Z"/><rect class="cls-3" x="53" y="808.19" width="210" height="2"/></svg>