<svg id="Layer_1" data-name="Layer 1" xmlns="http://www.w3.org/2000/svg" viewBox="0 0 1024 1024"><defs><style>.cls-1,.cls-9{fill:#6c63ff;}.cls-1,.cls-10,.cls-5{opacity:0.1;}.cls-1,.cls-11,.cls-4,.cls-5{isolation:isolate;}.cls-2{fill:#454b69;}.cls-3{fill:none;}.cls-4{opacity:0.4;}.cls-6{fill:#efb7b9;}.cls-7{fill:#996044;}.cls-8{fill:#fff;}.cls-11{opacity:0.08;}.cls-12{fill:#3f3d56;}.cls-13{fill:#9c9ca1;}.cls-14{fill:#939498;}</style></defs><title>icons</title><path class="cls-1" d="M961.2,744.22a150.18,150.18,0,0,1-13,25,109.19,109.19,0,0,1-7.89,10.85l-.09.09H58.57l.12-.09c.8-.62,5.45-4.39,12.7-10.85,5.19-4.62,11.71-10.64,19-17.87,59.89-58.9,174.93-198.33,79.12-326-89.06-118.73,6.83-140.28,70.09-142.79a180.66,180.66,0,0,1,71.29,11.65c29.22,11.1,82.63,28.13,152.22,35.94,2.29.25,4.59.5,6.92.73a666.65,666.65,0,0,0,110.89,2h0l3.28-.22a659,659,0,0,0,108.46-16.78c2.31-.57,4.59-1.1,6.86-1.63,118.7-27.46,228.13,66.14,200.77,171.92C890.2,525.3,892.77,567,926.5,600.75,981.71,655.82,975,710.06,961.2,744.22Z"/><path class="cls-2" d="M961.2,744.22a150.18,150.18,0,0,1-13,25,109.19,109.19,0,0,1-7.89,10.85H58.69c.8-.62,5.45-4.39,12.7-10.85,5.19-4.62,11.71-10.64,19-17.87l92.92-19.2a17.94,17.94,0,0,1,3.65-.37l99.06-.15h.11l49.06-.06h.11l41.41-.05h54.88l113.77-.16h49l19.54-.22h6.45l56.84-.08h26.87L769.7,731h19.55l62.18-.09,52.48-.06a18.66,18.66,0,0,1,4.34.51Z"/><path class="cls-3" d="M71.39,769.26h876.8a109.19,109.19,0,0,1-7.89,10.85H58.69C59.47,779.45,64.13,775.68,71.39,769.26Z"/><path class="cls-4" d="M71.39,769.26h876.8a109.19,109.19,0,0,1-7.89,10.85H58.69C59.47,779.45,64.13,775.68,71.39,769.26Z"/><path class="cls-2" d="M640.24,522.54l-1.76.34-79.62,15.3c-23.12,4.44-46.58,8.91-70.07,7.2-17-1.23-32.91-6.28-49.26-10.71-9.25-2.5-19-3.5-22.18-13.85-4.32-14.28,2.72-35.42,4.37-49.89,1.59-14.2,2.53-28.76-.3-42.79a75.09,75.09,0,0,0-2.47-9.31c-2.83-8.4-7.28-17.14-4.88-25.67,1.9-6.76,7.68-11.59,13.09-16.07,10.6-8.73,21.42-18.51,25.62-31.59,2.06-6.34,2.45-13.18,4.67-19.47,4.22-12,14.8-20.94,26.57-25.68s24.72-5.75,37.42-5.75A254.17,254.17,0,0,1,555,296.82c12.12,1.59,24.35,4.2,35,10.21s19.64,15.87,22.12,27.88c3.52,17-6.24,35.07-1,51.57,2.64,8.33,8.73,15.07,13,22.7a54.08,54.08,0,0,1,4,42.05C623,466.91,610.56,482.78,616.91,498c4,9.67,14.35,14.84,21.54,22.5C639.09,521.17,639.69,521.86,640.24,522.54Z"/><path class="cls-5" d="M638.48,520.54v2.34l-79.62,15.3c-23.12,4.44-46.58,8.91-70.07,7.2-17-1.23-32.91-6.28-49.26-10.71-9.25-2.5-19-3.5-22.18-13.85-4.32-14.28,2.72-35.42,4.37-49.89,1.59-14.2,26-66,23.19-80.08l146,6.35c1,7.75,39.56,46.66,37.16,54.09C623,467,610.59,482.84,616.93,498.05,621,507.72,631.29,512.88,638.48,520.54Z"/><path class="cls-6" d="M489.34,481.29c.86,4.91,1.32,10.31-1.18,14.6-3.34,5.74-10.63,7.57-17.14,8.88l-22.61,4.52a8.81,8.81,0,0,0-4.32,1.71,7.54,7.54,0,0,0-2,4.94c-.91,8.19,2,16.26,4.63,24.06,5.34,15.79,9.82,31.92,16.57,47.16s16,29.79,29.24,40,30.73,15.62,46.92,11.63c14.1-3.46,25.67-13.42,35.64-24,8.23-8.73,15.92-18.24,19.91-29.57,2.76-7.77,3.65-16.05,4.52-24.25q2-18.87,4-37.73c.63-5.91,1-12.55-2.79-17.08a20.35,20.35,0,0,0-6.3-4.54c-8.68-4.61-17.82-8.42-25.89-14s-15.24-13.2-17.7-22.69c-1.46-5.7-1.2-11.9-3.7-17.21-2.79-5.95-8.73-10-15.07-11.75s-13-1.53-19.58-.79-31.73,2.63-34.44,10c-1.45,4,4.57,12.48,6,16.38A115,115,0,0,1,489.34,481.29Z"/><path class="cls-7" d="M489.34,481.29c.86,4.91,1.32,10.31-1.18,14.6-3.34,5.74-10.63,7.57-17.14,8.88l-22.61,4.52a8.81,8.81,0,0,0-4.32,1.71,7.54,7.54,0,0,0-2,4.94c-.91,8.19,2,16.26,4.63,24.06,5.34,15.79,9.82,31.92,16.57,47.16s16,29.79,29.24,40,30.73,15.62,46.92,11.63c14.1-3.46,25.67-13.42,35.64-24,8.23-8.73,15.92-18.24,19.91-29.57,2.76-7.77,3.65-16.05,4.52-24.25q2-18.87,4-37.73c.63-5.91,1-12.55-2.79-17.08a20.35,20.35,0,0,0-6.3-4.54c-8.68-4.61-17.82-8.42-25.89-14s-15.24-13.2-17.7-22.69c-1.46-5.7-1.2-11.9-3.7-17.21-2.79-5.95-8.73-10-15.07-11.75s-13-1.53-19.58-.79-31.73,2.63-34.44,10c-1.45,4,4.57,12.48,6,16.38A115,115,0,0,1,489.34,481.29Z"/><path class="cls-8" d="M543.75,567.56,557,539.49c6.21-13.15,12.55-27,11.9-41.5-.13-2.89-.16-6.5,2.38-7.81a6.78,6.78,0,0,1,3.48-.44A140.64,140.64,0,0,1,615.63,498c2.55.92,5.16,2,6.94,4s2.51,4.76,3.12,7.38a216,216,0,0,1,4.55,26.87c2.38,22.38,1.19,45,0,67.43l-3.53,68.56a6.55,6.55,0,0,1-.57,2.83c-.88,1.58-2.84,2.12-4.61,2.42-6.82,1.16-13.78.93-20.69.66-48.55-1.84-97.35-4.66-145.58,1.23q.32-10.71-.34-21.42c-1.92-30.86-9.91-61-17.77-90.84-4.57-17.46-9-36.5-1.64-52.94a22.68,22.68,0,0,1,4.6-7c3.13-3.07,7.4-4.69,11.64-5.85a74.22,74.22,0,0,1,22.44-2.53l50,108.89c2.29,5,4.17,10.23,6.44,15.15,2.05-8.5-.41-18.46,2.05-27.67C535.35,585.64,539.52,576.49,543.75,567.56Z"/><path class="cls-9" d="M538.52,642.48c9,.57,17.65-4,23.8-10.5s10.22-14.7,13.65-23a226.53,226.53,0,0,0,11.74-36.58c2.38-10.63,4.07-21.63,2.43-32.4-2.27-14.88-10.69-28.39-12.13-43.37-.24-2.62-.08-5.68,2-7.26a8.36,8.36,0,0,1,4.63-1.21c15-.88,31.4-.72,43,8.78,3.53,2.89,6.39,6.49,9.85,9.47,8.21,7.14,19.83,10.77,25.1,20.25,1.84,3.3,2.72,7,4,10.59,3,8.41,8.27,15.81,13.49,23.08-5.06,21.32-10.86,42.66-15.92,64-3,12.51-5.94,25.07-10.59,37.05-3,7.85-6.88,15.86-5.94,24.27a55.13,55.13,0,0,0,2.44,9.66,111.24,111.24,0,0,1,4.67,34.54l-226.36.55c10.84-15.55,14-34.62,12.92-53.54-.53-9.07-2.58-18.19-7.14-26-7.19-12.3-19.83-20.31-32.3-27.18-8.72-4.76-18.09,22-27.52,19,1.52-10.78,2.22-52.36,1.58-63.21-.2-3.55-.52-7.2.57-10.59.75-2.33,2.12-4.41,3.05-6.67,3.72-9,.17-20.62,6.19-28.33,4.16-5.35,11.45-6.88,17.37-10.18,6.09-3.39,10.79-8.72,16.09-13.28A71.64,71.64,0,0,1,455.83,494a46.2,46.2,0,0,1,7,20.63c.4,4.61.11,9.28.75,13.87.88,6.21,3.45,12,6,17.78,10.61,24,21.25,48,34.69,70.46,3.8,6.35,7.93,12.7,13.44,17.64S531.13,642.83,538.52,642.48Z"/><path class="cls-5" d="M538.52,642.48c9,.57,17.65-4,23.8-10.5s10.22-14.7,13.65-23a226.53,226.53,0,0,0,11.74-36.58c2.38-10.63,4.07-21.63,2.43-32.4-2.27-14.88-10.69-28.39-12.13-43.37-.24-2.62-.08-5.68,2-7.26a8.36,8.36,0,0,1,4.63-1.21c15-.88,31.4-.72,43,8.78,3.53,2.89,6.39,6.49,9.85,9.47,8.21,7.14,19.83,10.77,25.1,20.25,1.84,3.3,2.72,7,4,10.59,3,8.41,8.27,15.81,13.49,23.08-5.06,21.32-10.86,42.66-15.92,64-3,12.51-5.94,25.07-10.59,37.05-3,7.85-6.88,15.86-5.94,24.27a55.13,55.13,0,0,0,2.44,9.66,111.24,111.24,0,0,1,4.67,34.54l-226.36.55c10.84-15.55,14-34.62,12.92-53.54-.53-9.07-2.58-18.19-7.14-26-7.19-12.3-19.83-20.31-32.3-27.18-8.72-4.76-18.09,22-27.52,19,1.52-10.78,2.22-52.36,1.58-63.21-.2-3.55-.52-7.2.57-10.59.75-2.33,2.12-4.41,3.05-6.67,3.72-9,.17-20.62,6.19-28.33,4.16-5.35,11.45-6.88,17.37-10.18,6.09-3.39,10.79-8.72,16.09-13.28A71.64,71.64,0,0,1,455.83,494a46.2,46.2,0,0,1,7,20.63c.4,4.61.11,9.28.75,13.87.88,6.21,3.45,12,6,17.78,10.61,24,21.25,48,34.69,70.46,3.8,6.35,7.93,12.7,13.44,17.64S531.13,642.83,538.52,642.48Z"/><circle class="cls-7" cx="526.55" cy="411.49" r="68"/><path class="cls-2" d="M490.87,502.11c1.86-17.6-5.45-34.81-13.73-50.45-4-7.47-8.22-14.92-10.21-23.13s-1.42-17.51,3.67-24.26c4.33-5.74,11.2-8.85,17.56-12.22,17.93-9.52,34.33-23.51,42.22-42.22-4.46,2.42-3.3,9.67.63,12.86s9.3,3.82,14.14,5.34c17.64,5.55,28.22,23.15,36.71,39.59,1.39,2.68,2.8,5.51,2.79,8.53s-1.4,5.71-2.84,8.28c-4.19,7.45-9.32,14.62-11.22,23-2.18,9.52.12,19.53,3.11,28.86,3.17,9.94,7.38,19.95,15,27.07s19.43,10.66,28.8,6.06c-9.36-16.08-19-34.05-15.39-52.28,1.76-8.72,6.49-16.66,8.51-25.33,3.84-16.56-2.56-33.59-8.83-49.4L583,335.21c-2.87-7.21-6.13-14.9-12.7-19-4.44-2.75-9.82-3.47-15-4-16.76-1.49-34.12-1-49.71,5.24-28.42,11.35-46.24,39.34-60.37,66.49-4.24,8.13-8.42,16.77-8.24,25.94.09,5,1.49,9.92,2.64,14.82,4.65,20,4.9,40.65,5.14,61.14.18,15.72-.64,30.54-7.51,44.86,9.42,1.87,23.09,6.92,32.42,3.23C481.85,529.16,489.34,514.35,490.87,502.11Z"/><g class="cls-10"><path d="M444.74,485.54q0-3.35,0-6.77c-.24-20.49-.49-41.17-5.14-61.13a103.48,103.48,0,0,1-2.43-11.81A31.5,31.5,0,0,0,437,410c.09,5,1.5,9.92,2.64,14.83C444.22,444.62,444.51,465.17,444.74,485.54Z"/><path d="M610.62,431.77a48,48,0,0,0,1-14.14,44.59,44.59,0,0,1-1,7c-2,8.72-6.75,16.58-8.51,25.33a42,42,0,0,0-.64,11.73,41.87,41.87,0,0,1,.64-4.59C603.87,448.35,608.6,440.46,610.62,431.77Z"/><path d="M584,412.51a11.87,11.87,0,0,0,.62-3.5c0-3-1.4-5.85-2.79-8.53-8.49-16.44-19-34-36.71-39.59-4.84-1.52-10.2-2.14-14.14-5.34a10,10,0,0,1-3.47-7c-8.6,15.79-23.38,27.86-39.38,36.34-6.35,3.37-13.23,6.48-17.56,12.22-4.07,5.39-5.25,12.42-4.55,19.21a24.34,24.34,0,0,1,4.55-12.07c4.33-5.74,11.2-8.85,17.56-12.22,16-8.48,30.78-20.55,39.38-36.34a10,10,0,0,0,3.47,7c4,3.18,9.3,3.82,14.14,5.34,17.64,5.55,28.22,23.15,36.71,39.59A31,31,0,0,1,584,412.51Z"/><path d="M588.7,496.18c-7.62-7.14-11.81-17.13-15-27.07a78,78,0,0,1-3.81-17.22c-.74,8.15,1.29,16.49,3.81,24.36,3.17,9.94,7.38,19.95,15,27.07s19.43,10.66,28.8,6.06q-1.69-2.89-3.36-5.86C605.44,506,595.44,502.48,588.7,496.18Z"/><path d="M490.87,495c-1.53,12.24-9,27-21.21,31.89-8.47,3.35-20.52-.5-29.71-2.63a67.77,67.77,0,0,1-2.72,6.54c9.43,1.87,23.1,6.93,32.43,3.23,12.19-4.84,19.68-19.65,21.21-31.89a55.66,55.66,0,0,0,.17-9.22C491,493.58,490.92,494.28,490.87,495Z"/></g><path class="cls-8" d="M587,691.66c-12.25-1.94-24.69-5.7-36.85-3.17-7,1.46-13.48,5-19.34,9.2,3.22,2.58,7,4.88,9,8.46a33.22,33.22,0,0,1,2.84,7.83c1.29,4.76,2.58,9.62,2.78,14.57s-.79,10.11-3.75,14.1c15.46,1.52,30.44-2.29,45.51-6A12.39,12.39,0,0,0,592,734.7c2.38-1.88,3.08-5.21,3.1-8.25,0-5.42-1.53-10.71-3.07-15.92C590.21,704.29,588.84,697.86,587,691.66Z"/><path class="cls-9" d="M669.75,557.85c6.09.8,10.81,5.71,14.28,10.75,9.75,14,14,31.07,18.64,47.51a628.3,628.3,0,0,0,20.52,60.39,91.48,91.48,0,0,0,6.15,13.25c2,3.27,4.34,6.42,5.21,10.14,2.09,9-5.32,17.46-13.06,22.47a51.4,51.4,0,0,1-13.37,6.44,79.22,79.22,0,0,1-14.21,2.43l-44,4.76c-20.27,2.21-40.72,4.41-61,2.28-1.27-4.44,1.23-7.58,1-12.2-.13-3.31-1.59-6.39-2.89-9.44a60.16,60.16,0,0,1-4.7-17.06,22.88,22.88,0,0,0-1.14-6.4c-.82-2-2.59-3.83-4.76-4,11.9-1.18,20.94-3.43,32.84-4.62,4.42-.44,9-.94,12.78-3.29,4.67-2.91,7.29-8.16,9.37-13.25,5.15-12.62,8.46-26.52,5.76-39.88-2.22-10.95-8.42-21.15-8.39-32.33,0-6.66,2.27-13.11,5-19.2,2.84-6.44,6.55-13,12.78-16.29S662.71,556.9,669.75,557.85Z"/><path class="cls-11" d="M669.75,557.85c6.09.8,10.81,5.71,14.28,10.75,9.75,14,14,31.07,18.64,47.51a628.3,628.3,0,0,0,20.52,60.39,91.48,91.48,0,0,0,6.15,13.25c2,3.27,4.34,6.42,5.21,10.14,2.09,9-5.32,17.46-13.06,22.47a51.4,51.4,0,0,1-13.37,6.44,79.22,79.22,0,0,1-14.21,2.43l-44,4.76c-20.27,2.21-40.72,4.41-61,2.28-1.27-4.44,1.23-7.58,1-12.2-.13-3.31-1.59-6.39-2.89-9.44a60.16,60.16,0,0,1-4.7-17.06,22.88,22.88,0,0,0-1.14-6.4c-.82-2-2.59-3.83-4.76-4,11.9-1.18,20.94-3.43,32.84-4.62,4.42-.44,9-.94,12.78-3.29,4.67-2.91,7.29-8.16,9.37-13.25,5.15-12.62,8.46-26.52,5.76-39.88-2.22-10.95-8.42-21.15-8.39-32.33,0-6.66,2.27-13.11,5-19.2,2.84-6.44,6.55-13,12.78-16.29S662.71,556.9,669.75,557.85Z"/><path class="cls-7" d="M394,547.55c2.88-6.84,5.81-13.9,5.89-21.32.08-8-3.18-15.63-5.67-23.25a134.13,134.13,0,0,1-6.11-28.71,3.93,3.93,0,0,1,.39-2.75c.66-.93,1.93-1.12,3.05-1.37,5.49-1.25,9.64-5.68,13.07-10.15A111.84,111.84,0,0,0,418,437.66c2.63-5.85,6.18-13,12.59-13A364.17,364.17,0,0,1,421,460.52c6.7-1.71,13.07-4.2,19.77-5.92a11.94,11.94,0,0,1,4.07-.53c4,.42,6.47,5.85,4.14,9.14,3.27,3.84,8.72,4.87,13,7.51s7.36,9.15,3.55,12.46a10.57,10.57,0,0,0-2.23,1.92c-1.84,2.84,2.67,6.1,2.29,9.46-.3,2.76-3.83,4-6.5,3.31s-4.76-2.73-7.14-4.19-5.49-2.38-7.8-.86c-.62,7.46-1.28,15.07-4.51,21.87-1.18,2.48-2.7,4.81-3.65,7.39a36.06,36.06,0,0,0-1.68,8.67l-2.88,26.33C417.69,559.83,405.37,555.71,394,547.55Z"/><path class="cls-8" d="M390.63,571.15,388.1,554a28.31,28.31,0,0,1-.4-4.22c0-4,1.74-7.75,3.43-11.36,14,6.54,29.14,8.86,44.59,8.87,2,0,4.36-.19,5.63-1.78,2.63,3,2.71,7.88,1.59,11.72s-3.27,7.3-4.7,11c-.72,1.9-1.31,4-2.69,5.43-2.14,2.31-5.61,2.7-8.77,2.69a55.71,55.71,0,0,1-9.9-.95C408.42,573.89,399.09,569.63,390.63,571.15Z"/><path class="cls-9" d="M442.86,570.45q-16.31-1.86-32.39-5.23c-5.26-1.11-10.57-2.34-15.93-2.12-3.49.14-7.24.84-10.31-.89,3,10.18,3.17,20.9-.41,30.89-2.12,5.95-5.35,11.5-6.9,17.62-3.24,12.81,1.2,26.78-2.84,39.36a10,10,0,0,1-2.44,4.38c-1.24,1.14-2.93,1.72-4.07,2.95-1.69,1.81-1.79,4.53-1.8,7l-.07,21.86c-.05,13.91.14,28.67,7.48,40.45,8.38,13.49,26,20.48,41.37,16.38a30.91,30.91,0,0,0,11.23-5.5c5.33-4.24,8.72-10.36,12.05-16.33,4-7.14,7.93-14.43,9.21-22.47.9-5.69.4-11.49-.25-17.21-3.59-31.74-11.37-63.2-9.7-95.05A28.8,28.8,0,0,1,442.86,570.45Z"/><path class="cls-7" d="M488.28,702.14a96.28,96.28,0,0,1-16.55,0c-4-.48-7.84-1.45-11.78-2.12a75.49,75.49,0,0,0-60.76,16.88c-3,2.61-6.12,6.6-4.44,10.24,1.81,3.92,7.34,3.8,11.6,3.07a35,35,0,0,0-11.9,9.31c-1.19,1.45-2.32,3.17-2.09,5.05.49,3.93,5.82,4.64,9.76,4.3-1.28,1.38-.42,3.83,1.22,4.76s3.66.75,5.51.41A40.92,40.92,0,0,0,420.56,750c-.75,1.95.55,4.22,2.38,5.19a9.79,9.79,0,0,0,6.11.57c9.7-1.59,17.79-8.33,27.25-11,15.12-4.23,30.94,2.51,46.65,3a32.61,32.61,0,0,0,14.45-2.38c5.49-2.5,9.93-7.19,15.74-8.86,6.45-1.84,13.85.28,19.75-2.9,4.29-2.31.42-20.1-.67-23.53-2-6.27-4-10.42-10.71-11.06C524.58,697.36,505.33,701.16,488.28,702.14Z"/><path class="cls-8" d="M530.49,697.28s25.62,21.69,10.84,45.34l28.56-9.86v-20.7c0-1-10.84-15.76-10.84-15.76l-12.82-2Z"/><path class="cls-12" d="M262.29,695.94h9.6a19.84,19.84,0,0,1,19.84,19.84v29.44H242.45V715.78a19.84,19.84,0,0,1,19.84-19.84Z"/><path class="cls-5" d="M262.29,695.94h9.6a19.84,19.84,0,0,1,19.84,19.84v29.44H242.45V715.78a19.84,19.84,0,0,1,19.84-19.84Z"/><circle class="cls-12" cx="265.12" cy="702.84" r="3.94"/><circle class="cls-12" cx="265.12" cy="697.91" r="3.94"/><circle class="cls-12" cx="265.12" cy="692.99" r="3.94"/><circle class="cls-12" cx="265.12" cy="688.06" r="3.94"/><circle class="cls-12" cx="265.12" cy="683.13" r="3.94"/><circle class="cls-12" cx="265.12" cy="678.21" r="3.94"/><circle class="cls-12" cx="265.12" cy="673.27" r="3.94"/><circle class="cls-12" cx="271.04" cy="675.25" r="3.94"/><circle class="cls-12" cx="274.98" cy="673.27" r="3.94"/><circle class="cls-12" cx="278.92" cy="671.3" r="3.94"/><circle class="cls-12" cx="265.12" cy="668.35" r="3.94"/><circle class="cls-12" cx="265.12" cy="663.42" r="3.94"/><circle class="cls-12" cx="265.12" cy="658.49" r="3.94"/><circle class="cls-12" cx="265.12" cy="653.57" r="3.94"/><path class="cls-9" d="M281.49,640.85c-1,.14-2,.25-2.95.31a23.09,23.09,0,0,0,2.54-2.6,16.79,16.79,0,0,0-2.38-4.63,8.11,8.11,0,0,1-3.17,1c-1,.14-2,.25-2.95.32a48.12,48.12,0,0,0,3.77-4,16.74,16.74,0,1,0,5.5,12.39,17.32,17.32,0,0,0-.25-2.88Z"/><path class="cls-9" d="M294.64,660.44a7.82,7.82,0,0,1-3.32,1.1c-1,.14-2,.25-2.94.32a29.85,29.85,0,0,0,2.92-3,9.85,9.85,0,1,0,3.34,1.58Z"/><circle class="cls-12" cx="259.21" cy="675.25" r="3.94"/><circle class="cls-12" cx="255.27" cy="673.27" r="3.94"/><circle class="cls-12" cx="251.32" cy="671.3" r="3.94"/><path class="cls-9" d="M235.61,660.44a7.78,7.78,0,0,0,3.31,1.1c1,.14,2,.25,3,.32a27.83,27.83,0,0,1-2.92-3,9.85,9.85,0,1,1-3.34,1.58Z"/><path class="cls-12" d="M262.29,698.86h9.6a19.84,19.84,0,0,1,19.84,19.84h0v26.07a3.37,3.37,0,0,1-3.37,3.37H245.79a3.37,3.37,0,0,1-3.36-3.37V718.7a19.83,19.83,0,0,1,19.83-19.84Z"/><g class="cls-10"><path d="M281.76,641.93a14.41,14.41,0,0,1-1.27,1.2,12.3,12.3,0,0,0,1.35-.12C281.83,642.65,281.8,642.29,281.76,641.93Z"/><path d="M274.57,637.22c1-.07,2-.17,3-.31a9.92,9.92,0,0,0,2.56-.7,17.07,17.07,0,0,0-1.38-2.28,6.2,6.2,0,0,1-1.59.68A23.27,23.27,0,0,1,274.57,637.22Z"/><path d="M250.34,645.68a16.72,16.72,0,0,1,25.78-14.09l.26-.27a16.74,16.74,0,1,0-22.26,25l.19.16A16.59,16.59,0,0,1,250.34,645.68Z"/></g><g class="cls-10"><path d="M288.38,663.82c1-.06,2-.16,2.94-.31a7.7,7.7,0,0,0,3.32-1.11,9.86,9.86,0,0,1,4,7,8.89,8.89,0,0,0,.06-1,9.84,9.84,0,0,0-4-7.94,7.52,7.52,0,0,1-3.31,1.1l-.8.11A19,19,0,0,1,288.38,663.82Z"/><path d="M288.77,660.46a8.24,8.24,0,0,1,1,.07c.51-.55,1-1.13,1.54-1.7a9.84,9.84,0,0,0-12.05,7,10,10,0,0,0-.33,2.56,6.44,6.44,0,0,0,.05,1A9.84,9.84,0,0,1,288.77,660.46Z"/></g><g class="cls-10"><path d="M241.87,663.82c-1-.06-2-.16-3-.31a7.66,7.66,0,0,1-3.31-1.11,9.84,9.84,0,0,0-4,7,7.11,7.11,0,0,1,0-1,9.8,9.8,0,0,1,4-7.94,7.56,7.56,0,0,0,3.32,1.1l.79.11A18.37,18.37,0,0,0,241.87,663.82Z"/><path d="M241.47,660.46a8.24,8.24,0,0,0-1,.07c-.51-.55-1-1.13-1.53-1.7a9.82,9.82,0,0,1,12,7,10,10,0,0,1,.33,2.56,8,8,0,0,1,0,1A9.86,9.86,0,0,0,241.47,660.46Z"/></g><path class="cls-9" d="M214.74,757.67H137.23a3.29,3.29,0,0,1-3.29-3.29h0V717.7a3.29,3.29,0,0,1,4.7-3c22.27,10.57,46.26,14.19,74.57.17a3.3,3.3,0,0,1,4.76,2.94v36.49a3.29,3.29,0,0,1-3.23,3.35Z"/><path class="cls-5" d="M214.74,757.67H137.23a3.29,3.29,0,0,1-3.29-3.29h0V717.7a3.29,3.29,0,0,1,4.7-3c22.27,10.57,46.26,14.19,74.57.17a3.3,3.3,0,0,1,4.76,2.94v36.49a3.29,3.29,0,0,1-3.23,3.35Z"/><ellipse class="cls-12" cx="175.44" cy="723.78" rx="4.59" ry="6.01"/><ellipse class="cls-12" cx="175.44" cy="716.44" rx="4.59" ry="6.01"/><ellipse class="cls-12" cx="175.44" cy="709.1" rx="4.59" ry="6.01"/><ellipse class="cls-12" cx="175.44" cy="701.76" rx="4.59" ry="6.01"/><ellipse class="cls-12" cx="175.44" cy="694.41" rx="4.59" ry="6.01"/><ellipse class="cls-12" cx="175.44" cy="687.07" rx="4.59" ry="6.01"/><ellipse class="cls-12" cx="175.44" cy="679.73" rx="4.59" ry="6.01"/><path class="cls-9" d="M192.64,629.48a25.21,25.21,0,0,0,1.71-2.51l-12.06-2,13,.1a22,22,0,0,0,.42-17.45l-17.49,9.07,16.14-11.9a22,22,0,0,0-38.06,22,21.27,21.27,0,0,0,1.75,2.58,21.39,21.39,0,0,0-2.51,4l15.64,8.22L154.56,636a22,22,0,0,0,3.55,20.62,22,22,0,1,0,34.56,0,22,22,0,0,0,0-27.18Z"/><path class="cls-5" d="M153.37,643.07a21.89,21.89,0,0,0,4.7,13.59,22,22,0,1,0,34.56,0C195.57,652.92,153.37,640.6,153.37,643.07Z"/><path class="cls-9" d="M214.74,759.61H137.23a3.29,3.29,0,0,1-3.29-3.29h0V717.7a3.29,3.29,0,0,1,4.7-3c22.27,10.57,39.93,22.89,74.57.17,2.06-1.35,4.76.49,4.76,2.94v38.48A3.28,3.28,0,0,1,214.74,759.61Z"/><polygon class="cls-13" points="789.87 748.69 675.52 763.82 669.8 764.57 613.89 734.71 613.89 727.72 788.6 708.67 789.87 748.69"/><polygon class="cls-14" points="646.29 737.89 770.17 723.28 768.9 746.15 672.41 753.23 646.29 737.89"/><path class="cls-4" d="M675.52,756.31v7.5l-5.72.79-55.91-29.89v-7l53.36,28.56S674.25,756.94,675.52,756.31Z"/><path class="cls-12" d="M697.47,637.19l-25.67,119a7.58,7.58,0,0,0,8.42,9.14l162.42-21.49a7.62,7.62,0,0,0,6.22-5.14l35-105.67a7.62,7.62,0,0,0-4.85-9.62,7.71,7.71,0,0,0-2.74-.38l-171.76,8.16A7.6,7.6,0,0,0,697.47,637.19Z"/><ellipse class="cls-8" cx="782.3" cy="680.64" rx="6.9" ry="4.43" transform="translate(23.62 1387.51) rotate(-84)"/></svg>