<svg xmlns="http://www.w3.org/2000/svg" viewBox="0 0 1000 1000">
  <circle cx="500" cy="500" r="500" fill="#6D64FF"/>
  <path d="M507.5 959.6c-6.2-2.1-12.3-4.3-18.5-6.4-22.8-7.7-43-21.1-59.8-39.1-10.2-10.9-19.2-22.9-27.9-35.2-4.4-6.2-9.2-12.2-13.1-18.7-3.9-6.5-1-11.6 6.6-12.8 4.2-0.7 8.6-0.6 12.9-0.2 8.4 0.9 16.8 2.1 25.1 3.2 5.1 0.7 10.1 1.6 15.3 1.7 11.3 0.1 21.5-3.8 29.9-11.5 4.1-3.7 7.3-8.3 9.7-13.3 6.9-14.2 13.7-28.5 20.5-42.8 8.3-17.4 16.7-34.7 25-52.1 2.6-5.5 5.6-10.9 7.7-16.6 1.8-4.8 3.7-9.9 3.6-15-0.1-11.6-4.1-21.9-12.5-30.1-4.7-4.5-10-8-16.2-10.3-4.5-1.6-9.2-2.5-14-3.1-9.4-1.2-18.9-2-28.3-3.2-10.4-1.4-20.7-3.1-31.1-4.5-2.4-0.3-5-0.2-7.4 0.2-4.5 0.8-7.5-0.9-9.8-4.6-2.3-3.6-2.1-7.2 1-10.2 2.4-2.2 5.1-4.2 8-5.6 9.2-4.5 18.5-8.8 27.8-13.1 15.3-7.1 30.6-14 45.9-21.1 10.4-4.9 20.8-9.8 31.2-14.8 10.1-4.9 20.2-9.8 30.3-14.7 11.3-5.5 22.6-11 33.8-16.5 12.7-6.2 25.5-12.4 38.2-18.6 10.3-5 20.6-10.1 30.9-15 7.1-3.3 14.1-6.9 21.3-10 7.5-3.2 15.2-3.1 22.9-0.9 8.2 2.4 13.8 7.8 17.6 15.2 4.2 8.1 8.4 16.2 12.6 24.3 3 5.8 2.6 11.7 0.3 17.6-0.9 2.3-2.2 4.5-3.7 6.4-3.8 4.9-4.2 10-2.7 15.6 1 3.8 2.8 7.4 4.2 11.1 2.3 5.8 4.5 11.6 6.9 17.3 0.5 1.3 1.6 2.4 2.6 3.4 11 10.5 21.8 21.2 31.3 33 5.9 7.2 11.1 14.8 14.4 23.6 3.7 9.8 4.2 19.6-0.8 29.1-2.2 4.3-5.3 8-9.3 10.8-3.6 2.5-7.5 4.7-11.6 6.3-15.1 5.9-30.4 11.5-45.7 17.2-2.2 0.8-4.8 0.7-7.2 0.7-13.4 0-26.8-0.3-40.2-0.1-9.8 0.1-19.6 0.9-29.4 1.5-5.9 0.3-9 4.6-7.8 10.3 0.7 3.2 2.2 6.2 3.3 9.4 4.5 12.4 9 24.7 13.5 37.1 4.3 11.8 8.5 23.7 12.9 35.5 3.5 9.4 7.2 18.8 11 28.1 3.4 8.2 7 16.3 10.6 24.4 2.1 4.7 4.4 9.4 6.6 14.1 2 4.1 1.9 7.9-0.9 11.6-2.3 3.1-5.2 6-8.4 8.3-5.4 3.9-11.4 7-17.2 10.3-1.1 0.6-2.7 0.5-4.1 0.5-10.6-0.1-21.2-0.3-31.9-0.3-18.8-0.1-37.6 0-56.4 0.1-1.3 0-2.6 0.5-3.9 0.8-0.1 0-0.2 0.2-0.4 0.5z" fill="#2D2C35"/>
</svg>

